<svg xmlns="http://www.w3.org/2000/svg" viewBox="0 0 2020.59 1453.92"><defs><style>.cls-1{isolation:isolate;}.cls-2{fill:#c1d7f2;opacity:0.8;}.cls-3{fill:#c59ed1;}.cls-4{fill:#b786c6;}.cls-5{fill:#9e5db2;}.cls-6{fill:#e1ebf2;}.cls-46,.cls-6{mix-blend-mode:multiply;}.cls-7{fill:#f3f8ff;}.cls-8{fill:#577aae;}.cls-9{fill:#d7e5f7;}.cls-10{fill:#731490;}.cls-11{fill:#f6c19d;}.cls-12{fill:#f4ac7b;}.cls-13{fill:#cf8451;}.cls-14,.cls-23,.cls-46{fill:#d98b55;}.cls-15{fill:#171717;}.cls-16{fill:#fff;}.cls-17{fill:#454545;}.cls-18{fill:#0a0a0a;}.cls-19{fill:#2b2b2b;}.cls-20{fill:#f19a5e;}.cls-21{fill:#e9f1fa;}.cls-22{fill:#6b6b6b;}.cls-23,.cls-37,.cls-38,.cls-47{opacity:0.5;}.cls-24{fill:#27c15e;}.cls-25{fill:#00993d;}.cls-26,.cls-37{fill:#fbf9fc;}.cls-27,.cls-47{fill:#1f4d93;}.cls-28{fill:#053987;}.cls-29{fill:#6e0d8c;}.cls-30{fill:#2e599b;}.cls-31{fill:#9d5ab1;}.cls-32{fill:#303030;}.cls-33{fill:#d1824b;}.cls-34{fill:#4d72a9;}.cls-35{fill:#d6e6fb;}.cls-36{fill:#003585;}.cls-38{fill:#e6d6eb;}.cls-39{fill:#214f95;}.cls-40{fill:#f2f9eb;}.cls-41{fill:#e8d8ed;}.cls-42{fill:#700f8d;}.cls-43{fill:#305b9c;}.cls-44{fill:#e6f1ff;}.cls-45{fill:#aac1de;}.cls-46{opacity:0.3;}.cls-48{fill:#85c648;}.cls-49{fill:#832f9c;}</style></defs><g class="cls-1"><g id="Layer_1" data-name="Layer 1"><path class="cls-2" d="M2018.41,613.83a43.33,43.33,0,0,0-42.21-33.59,43.85,43.85,0,0,0-10.94,1.39,63.82,63.82,0,0,0-76.72-33.89,78.61,78.61,0,0,0-141.19,13.73,53.93,53.93,0,0,0-80.14,47.12c0,1.77.1,3.51.26,5.24Z" transform="translate(-57.66 -333.92)"/><path class="cls-2" d="M1944.93,1007.35a28.42,28.42,0,0,0-34.87-21.12A41.89,41.89,0,0,0,1859.72,964a51.58,51.58,0,0,0-92.64,9,35.38,35.38,0,0,0-52.57,30.92c0,1.15.06,2.3.16,3.43Z" transform="translate(-57.66 -333.92)"/><path class="cls-2" d="M325.94,585.45a28.47,28.47,0,0,0-34.87-21.12,41.89,41.89,0,0,0-50.34-22.24,51.58,51.58,0,0,0-92.64,9A35.38,35.38,0,0,0,95.52,582c0,1.16.06,2.3.16,3.43Z" transform="translate(-57.66 -333.92)"/><path class="cls-2" d="M987.08,428.21A39.27,39.27,0,0,0,939,399.05a57.76,57.76,0,0,0-69.49-30.69,71.19,71.19,0,0,0-127.88,12.43A48.84,48.84,0,0,0,669,423.47a46.43,46.43,0,0,0,.24,4.74Z" transform="translate(-57.66 -333.92)"/><path class="cls-3" d="M1667.46,1729.2c-3.62,3.52-6.66,10.48-9.87,17.85a168.36,168.36,0,0,1-9.16,18.74h-95c2.58-1.61,5.22-3.13,7.93-4.52,6.14-3.13,12.38-5.56,17.88-7.71,8.12-3.16,15.79-6.16,19.72-10.08,3.58-3.59,6.59-10.47,9.77-17.76,4.66-10.68,10.46-24,21.62-34.8,15.08-14.63,34.25-19.52,49.66-23.45,10.78-2.74,21-5.34,25.72-10.12,2.56-2.58,5.15-7.4,7.88-12.5,1.73-3.22,3.51-6.55,5.63-10a116.17,116.17,0,0,1,80.9-53.76c1.89-.28,3.64-.5,5.34-.71,2.73-.34,27.87-5.47,36.25.29h0c15.76,10.82,15.19,34.48-1.26,44.21a54.46,54.46,0,0,1-6,3.07c-8.26,3.61-16.09,4.58-22.39,5.37-1.42.18-2.77.34-4,.53a63,63,0,0,0-43.34,28.79c-1.34,2.2-2.71,4.74-4.15,7.43l-1.41,2.62-23.48.79,17,10.21a75.54,75.54,0,0,1-9.14,11.29c-15.14,15.22-34.67,20.2-50.36,24.2C1682.45,1721.9,1672.34,1724.48,1667.46,1729.2Z" transform="translate(-57.66 -333.92)"/><path class="cls-4" d="M1654.15,1646.92c-3.69,5.43-5.73,15.1-7.88,25.35-3.22,15.25-6.86,32.54-17.68,49-12,18.22-29,29.28-42.7,38.16-3.34,2.17-6.57,4.27-9.54,6.34h-88.27a141.07,141.07,0,0,1,39.26-50,248.29,248.29,0,0,1,20.75-14.54c9.52-6.18,18.5-12,22.48-18,3.61-5.51,5.63-15.08,7.76-25.21,3.13-14.83,7-33.3,18.39-50,15.35-22.61,38.5-33.89,57.1-43,13-6.34,25.29-12.33,30.1-19.68,2.59-4,4.61-10.79,6.76-18,1.35-4.56,2.74-9.27,4.53-14.24a150.32,150.32,0,0,1,40-59.77l15.9,25.11-7-32.65a148,148,0,0,1,40.09-22.51c2.33-.86,4.5-1.6,6.61-2.32,3.39-1.15,34.08-14.31,46.28-9.18h0a34.41,34.41,0,0,1,19.78,41l-31.59,2.66,24,10.89c-.67.72-1.37,1.43-2.12,2.12a72.73,72.73,0,0,1-6.84,5.5c-9.57,6.77-19.3,10.08-27.11,12.73-1.77.61-3.44,1.17-4.92,1.72a82.12,82.12,0,0,0-47.64,48.11c-1.13,3.16-2.2,6.76-3.33,10.57a204.14,204.14,0,0,1-6.61,19.67l-35.76,6.87,29.87,5.28q-1.26,2.22-2.7,4.43c-15.28,23.38-38.85,34.87-57.8,44.11C1671.32,1633.66,1659.11,1639.61,1654.15,1646.92Z" transform="translate(-57.66 -333.92)"/><path class="cls-5" d="M1680.89,1443.71c.68,11.37,1.51,25.21-1,39.94-18.38,10.34-54.26,30.56-50.17,28.38,3.84-2,30.29-8.18,45.79-11.67-9.23,26.07-27.58,45-42.67,60.64-11.67,12.06-22.69,23.45-25.23,33.46-1.88,7.43-.26,18.86,1.46,31,2.55,18,5.45,38.45.13,60.85-5.88,24.78-20.17,43.71-31.65,58.92-4.68,6.19-9.1,12-12.44,17.53-.61,1-1.19,2-1.76,3.07H1477a163.17,163.17,0,0,1,18.83-45.23,294.17,294.17,0,0,1,17-24.23c8-10.57,15.52-20.55,17.47-28.77,1.78-7.48.17-18.79-1.52-30.76-2.49-17.53-5.58-39.34.23-62.26,7.84-30.94,28.74-52.55,45.54-69.91,11.76-12.15,22.85-23.62,25.2-33.6,1.26-5.38.76-13.68.23-22.46-.33-5.54-.67-11.26-.7-17.44-.21-47.66,20-94.55,54.4-127.37l15.85,7-7.83-14.17c2-1.66,3.88-3.19,5.72-4.66,3.26-2.62,31.69-29.3,47.13-28.53h0c29,1.44,47.14,32.49,33.61,58.2a83.13,83.13,0,0,1-5.31,8.76c-7.81,11.25-17.16,18.75-24.68,24.79-1.7,1.36-3.3,2.65-4.71,3.84-20.54,17.38-33.23,44.89-33.11,71.8C1680.35,1434.7,1680.61,1439.07,1680.89,1443.71Z" transform="translate(-57.66 -333.92)"/><path class="cls-3" d="M419.59,1750.07c4,3,7.91,9.58,12,16.5A168.66,168.66,0,0,0,443,1784l94.31-11.72c-2.76-1.28-5.56-2.47-8.43-3.51a192.82,192.82,0,0,0-18.69-5.44c-8.45-2.14-16.43-4.17-20.82-7.58-4-3.11-7.82-9.58-11.88-16.42-5.94-10-13.34-22.49-25.75-31.87-16.77-12.65-36.4-15.14-52.17-17.13-11-1.4-21.45-2.72-26.77-6.88-2.86-2.24-6-6.71-9.37-11.43-2.11-3-4.29-6.06-6.81-9.24a116.17,116.17,0,0,0-86.92-43.36c-1.91,0-3.67-.06-5.39-.06-2.75,0-28.33-2-35.93,4.76h0c-14.31,12.69-10.83,36.09,6.7,43.72a54,54,0,0,0,6.34,2.31c8.64,2.56,16.53,2.56,22.87,2.56,1.44,0,2.79,0,4,0A63.07,63.07,0,0,1,314.85,1696c1.61,2,3.27,4.38,5,6.87.55.79,1.13,1.6,1.72,2.42l23.4-2.11-15.57,12.22a75.15,75.15,0,0,0,10.47,10.08c16.9,13.24,36.9,15.77,53,17.81C403.83,1744.67,414.17,1746,419.59,1750.07Z" transform="translate(-57.66 -333.92)"/><path class="cls-4" d="M422.66,1666.77c4.33,4.94,7.54,14.29,10.95,24.19,5.07,14.74,10.81,31.44,23.59,46.46,14.13,16.61,32.4,25.48,47.08,32.61,3.58,1.74,7,3.42,10.25,5.11l87.59-10.89A141.09,141.09,0,0,0,557,1719.44a251.26,251.26,0,0,0-22.39-11.87c-10.2-5-19.84-9.63-24.53-15.14-4.26-5-7.44-14.26-10.81-24-4.93-14.34-11.07-32.18-24.42-47.4-18-20.54-42.39-28.88-62-35.58-13.7-4.69-26.63-9.12-32.3-15.82-3.06-3.61-5.91-10.13-8.93-17-1.9-4.35-3.87-8.85-6.25-13.57a150.26,150.26,0,0,0-47-54.38l-12.68,26.87,2.92-33.26a148.17,148.17,0,0,0-42.56-17.39c-2.41-.57-4.66-1-6.84-1.49-3.51-.73-35.59-10-47.06-3.4h0A34.4,34.4,0,0,0,197.59,1499l31.67-1.25-22.44,13.76c.76.64,1.54,1.26,2.37,1.84a71.6,71.6,0,0,0,7.46,4.62c10.34,5.53,20.4,7.62,28.48,9.29,1.82.38,3.55.74,5.09,1.1a82.11,82.11,0,0,1,53.21,41.87c1.51,3,3,6.43,4.61,10.08a204.4,204.4,0,0,0,9,18.69l36.33,2.42-29,8.92q1.53,2.05,3.22,4.06c18.05,21.32,42.86,29.81,62.8,36.64C404,1655.73,416.83,1660.13,422.66,1666.77Z" transform="translate(-57.66 -333.92)"/><path class="cls-5" d="M371.05,1468.41c.73,11.38,1.62,25.2,6,39.51,19.51,8,57.61,23.63,53.29,22-4.06-1.55-31.07-4.38-46.88-5.93,12.38,24.72,32.92,41.29,49.83,54.91,13.07,10.53,25.41,20.47,29.16,30.08,2.78,7.15,2.59,18.69,2.38,30.91-.32,18.21-.67,38.83,7.37,60.41,8.89,23.86,25.4,40.88,38.68,54.56,5.4,5.57,10.51,10.83,14.5,15.86.73.92,1.43,1.87,2.13,2.83l85.65-10.65a163.36,163.36,0,0,0-24.26-42.55A293.37,293.37,0,0,0,569,1698.38c-9.22-9.51-17.94-18.49-20.88-26.4-2.69-7.21-2.49-18.63-2.29-30.71.31-17.71.69-39.74-7.9-61.76-11.6-29.74-35-48.6-53.83-63.76-13.16-10.6-25.59-20.62-29.14-30.24-1.92-5.18-2.45-13.47-3-22.25-.35-5.54-.72-11.27-1.45-17.39-5.67-47.33-31.48-91.38-69.7-119.7L366,1335.06l6-15c-2.18-1.41-4.25-2.69-6.25-3.92-3.56-2.2-35.07-25.16-50.29-22.5h0c-28.61,5-42.77,38.06-26.18,61.9a85.37,85.37,0,0,0,6.35,8c9.14,10.2,19.35,16.5,27.55,21.55,1.86,1.15,3.61,2.23,5.15,3.24,22.53,14.71,38.51,40.45,41.71,67.16C370.48,1459.4,370.76,1463.78,371.05,1468.41Z" transform="translate(-57.66 -333.92)"/><rect class="cls-6" x="507.12" y="588.05" width="729.57" height="1015.93" transform="translate(-260.99 -135.32) rotate(-11.65)"/><rect class="cls-7" x="450.36" y="680.26" width="729.57" height="1015.93" transform="translate(-323.24 -98.79) rotate(-14.14)"/><path class="cls-8" d="M653.39,1100.78l-160.56,40.45L452.38,980.67l160.56-40.45ZM503.3,1123.71l132.57-33.4-33.4-132.57L469.9,991.14Z" transform="translate(-57.66 -333.92)"/><path class="cls-8" d="M714.79,1340.58,552.37,1381.5l-40.92-162.43,162.42-40.92Zm-150.56,21.06,130.71-32.93L662,1198,531.3,1230.93Z" transform="translate(-57.66 -333.92)"/><path class="cls-8" d="M775,1579.67,612.6,1620.59l-40.92-162.43,162.43-40.92Zm-150.56,21.07,130.7-32.93L722.24,1437.1,591.54,1470Z" transform="translate(-57.66 -333.92)"/><rect class="cls-9" x="668.85" y="927.87" width="383.54" height="15.39" transform="translate(-260.13 -95.33) rotate(-14.14)"/><rect class="cls-9" x="681.95" y="979.84" width="383.54" height="15.39" transform="translate(-272.43 -90.56) rotate(-14.14)"/><rect class="cls-9" x="729.09" y="1166.96" width="383.54" height="15.39" transform="translate(-316.72 -73.37) rotate(-14.14)"/><rect class="cls-9" x="742.18" y="1218.94" width="383.54" height="15.39" transform="translate(-329.02 -68.6) rotate(-14.14)"/><rect class="cls-9" x="789.32" y="1406.06" width="383.54" height="15.39" transform="translate(-373.3 -51.42) rotate(-14.14)"/><rect class="cls-9" x="802.42" y="1458.03" width="383.54" height="15.39" transform="translate(-385.6 -46.64) rotate(-14.14)"/><path class="cls-10" d="M613.31,885.17l-48.84-63.85,13-3.29,24.78,33.35c9.2,12.4,13.16,18.41,15.53,22.22l.21-.05c.19-3.91,1.25-11.14,3.11-25.92l6.41-42.21,12.66-3.19L627,881.73Z" transform="translate(-57.66 -333.92)"/><path class="cls-10" d="M729.46,817.59c5.08,20.14-4.12,41-28.62,47.14-23.35,5.88-41.82-7.09-47.11-28.07-5-19.83,5.42-40.81,28.72-46.68S724.48,797.8,729.46,817.59Zm-63.27,15.66c3.77,15,15.88,25.9,32.72,21.66s21.76-19.34,18.08-34c-3.61-14.33-15.55-25.44-32.66-21.13C668.29,803.86,662.56,818.85,666.19,833.25Z" transform="translate(-57.66 -333.92)"/><path class="cls-10" d="M755.62,783.62l-26.8,6.75-2.48-9.83,65.46-16.49,2.47,9.83-26.75,6.74,15.56,61.78-11.9,3Z" transform="translate(-57.66 -333.92)"/><path class="cls-10" d="M867.45,786.48l-42.24,10.64L831,819.89l46.68-11.76,1,10.21-57,14.36-18-71.61,56.31-14.19,2.48,9.83-44.47,11.2,4.88,19.37L865,776.65Z" transform="translate(-57.66 -333.92)"/><polygon class="cls-10" points="498.75 761.01 450.2 734.23 457.64 720.75 491.03 739.18 530.3 642.99 544.55 648.81 498.75 761.01"/><polygon class="cls-10" points="592.6 895.09 576.91 885.71 550.25 930.33 505.63 903.67 496.25 919.36 540.87 946.02 514.21 990.64 529.9 1000.01 556.56 955.39 601.18 982.05 610.55 966.36 565.94 939.7 592.6 895.09"/><path class="cls-11" d="M1200.29,618.47s19.26,173.82,25,214,2.46,239.42,19.68,282,44.28,96.75,41,153.33-4.1,261.55-4.1,261.55l282.87-6.56s-11-300.47-13.48-328.35c0,0,63.5-43.89,87.27-110.31s83.64-180.38,96.76-191,53.29-29.51,50-43.45-39.36-39.36-109,13.94-60.67,82-79.53,70.51,26.65-470.64-32.39-470.64S1512.87,798,1492.89,795.84s-19.16-383.17-64.26-375.79c-42.7,7-18.85,372.24-35.25,373.88s-18-329.61-56.58-325.51c-54.63,5.81-16.39,338.63-29.51,340.27s-68.88-227.53-91-226.3C1193.93,583.63,1200.29,618.47,1200.29,618.47Z" transform="translate(-57.66 -333.92)"/><path class="cls-12" d="M1034,833.33l-.65-25.18-35.82,7.38-2.1,16.6C998.14,834.86,1012.72,847.77,1034,833.33Z" transform="translate(-57.66 -333.92)"/><path class="cls-13" d="M1033.9,830l-.56-21.81L997,819.45l-1,8.18C1004.05,830.55,1019.37,834.11,1033.9,830Z" transform="translate(-57.66 -333.92)"/><path class="cls-14" d="M1058.1,762.67c-2.06,6.29.47,12.69,5.67,14.29s11.08-2.2,13.14-8.49-.47-12.68-5.66-14.29S1060.17,756.38,1058.1,762.67Z" transform="translate(-57.66 -333.92)"/><path class="cls-12" d="M1059.22,798.46a49.6,49.6,0,0,0,3.27-8.64,92.43,92.43,0,0,0,3.34-23.82c0-1.57.15-3.13.3-4.7a49.59,49.59,0,0,0-2-19.58c-6.64-21.46-27.45-36.43-50.58-36.32-31.16.15-54.82,25.8-52.42,55.09a11.74,11.74,0,0,0-10.3,0c-6,3.18-7.56,11.66-3.46,18.94s12.3,10.62,18.31,7.44a9.87,9.87,0,0,0,2.24-1.62c4.66,24.72,27.32,42.35,52.57,40a47.82,47.82,0,0,0,30.92-15.35,22.24,22.24,0,0,0,1.65-1.76A44,44,0,0,0,1059.22,798.46Z" transform="translate(-57.66 -333.92)"/><path class="cls-15" d="M1012.11,761.9a4.51,4.51,0,0,1-4.14,4.87,4.57,4.57,0,0,1-5-4,4.49,4.49,0,0,1,4.14-4.86A4.57,4.57,0,0,1,1012.11,761.9Z" transform="translate(-57.66 -333.92)"/><path class="cls-15" d="M1048.23,760.15a4.5,4.5,0,0,1-4.14,4.86,4.57,4.57,0,0,1-5-4,4.5,4.5,0,0,1,4.14-4.87A4.58,4.58,0,0,1,1048.23,760.15Z" transform="translate(-57.66 -333.92)"/><path class="cls-15" d="M1016.76,752.59a45.13,45.13,0,0,0-6.74-1.5,23.54,23.54,0,0,0-6.44,0,22,22,0,0,0-6.14,1.78l-.76.32c-.26.1-.49.26-.74.38l-1.51.79c-1,.54-1.94,1.21-3.06,1.76a19.38,19.38,0,0,1,2-3,16.39,16.39,0,0,1,2.72-2.46,15.27,15.27,0,0,1,7-2.8,16.13,16.13,0,0,1,7.54.75A14.48,14.48,0,0,1,1016.76,752.59Z" transform="translate(-57.66 -333.92)"/><path class="cls-15" d="M1031.82,751.18a14.46,14.46,0,0,1,5.72-4.46,16.17,16.17,0,0,1,7.44-1.39,15.25,15.25,0,0,1,7.24,2.18,16.58,16.58,0,0,1,3,2.21,20.67,20.67,0,0,1,2.27,2.79c-1.17-.44-2.16-1-3.21-1.49l-1.58-.65c-.26-.1-.5-.24-.76-.32l-.8-.25a21.54,21.54,0,0,0-6.28-1.24,23.35,23.35,0,0,0-6.41.55A45.16,45.16,0,0,0,1031.82,751.18Z" transform="translate(-57.66 -333.92)"/><path class="cls-16" d="M1043.23,789.72c-1.54,5.46-8.28,9.5-16.28,9.36s-14.58-4.4-15.92-9.92Z" transform="translate(-57.66 -333.92)"/><polygon class="cls-17" points="841.89 811.34 811.26 1439.98 876.55 1446.62 989.38 801.38 841.89 811.34"/><path class="cls-16" d="M982.31,843.18s-7.32,322-5.09,322,64.27,11.67,64.27,11.67l19.32-26.56-3.4-296-31.87-11.07-11-3.13-14.26.11Z" transform="translate(-57.66 -333.92)"/><polygon class="cls-18" points="979.33 760.24 959.38 522.14 952.88 522.14 933.71 760.24 956.52 786.64 979.33 760.24"/><path class="cls-19" d="M1007.34,854.45l1.56,1.33a8.11,8.11,0,0,0,10.32.2l2.71-2.15L1014.7,842l-5.08,1.18Z" transform="translate(-57.66 -333.92)"/><path class="cls-20" d="M1301.25,699.39a1.27,1.27,0,0,0,2.14.66c5.53-5.51,23-22.74,24.77-21.65,2,1.3-13.23,17.07-12.23,19.09s15.51-13.75,17.48-12-11.75,15.66-11.18,16.68,15.14-10.92,16.91-10.59-12.23,15-11.89,16.41,13.37-5.46,14.09-4.41,1.38,1.63-23.5,25.54l-10.19,9L1295.36,741l-8.68-12.44s7.07-43.83,8.73-44.59S1298.13,684.19,1301.25,699.39Z" transform="translate(-57.66 -333.92)"/><path class="cls-21" d="M1034,831.75s-10.18,5.89-19.44,8.29c-9.26-2.4-19.44-8.29-19.44-8.29l-12.79,11.43c1.93,10.47,22.82,18.12,22.82,18.12l9.18-18.17,7.28,18.17s15.76-4.38,25.45-14.48Z" transform="translate(-57.66 -333.92)"/><path class="cls-22" d="M1314.13,741s-7.75-19.78-34.3-21.85c0,0-51.69,132.92-238.34,121.3,1.13,45.2,6.45,254.64,9.73,318.8,32.8-3.67,61.15-7.67,61.15-7.67s-14.75-176.67-4.42-224.62C1108,926.91,1272.08,928.64,1314.13,741Z" transform="translate(-57.66 -333.92)"/><path class="cls-22" d="M984.93,840.79C960.84,846.29,811.4,882.4,782.25,938c-31.72,60.49,52.38,174.1,88.53,180,0,0,14.38-14,21.76-48.69,0,0-36.89-40.57-41.68-94.79,0,0,37.25-17,53.48-21.76L891,1175.12s39,16.23,73.67,19.19a190.45,190.45,0,0,0,22.31.07Z" transform="translate(-57.66 -333.92)"/><polygon class="cls-19" points="927.28 506.87 876.93 552.41 902.1 570.12 876.93 598.15 927.28 830.96 927.28 506.87"/><polygon class="cls-19" points="983.83 506.48 1034.18 551.67 1009 569.38 1034.18 597.41 993.56 825.28 983.83 506.48"/><path class="cls-23" d="M1282.25,854.5s153.45-48.08,269-6.48C1551.26,848,1411.67,836.93,1282.25,854.5Z" transform="translate(-57.66 -333.92)"/><rect class="cls-24" x="1209.36" y="1297.01" width="295.98" height="137.13"/><path class="cls-23" d="M1282.25,964.44s133.12,115.87,159.62,173.18c0,0,71.49-130.65,129.42-177.49,0,0-88.13,38.21-127.57,109.7C1443.72,1069.83,1369.14,990.94,1282.25,964.44Z" transform="translate(-57.66 -333.92)"/><path class="cls-23" d="M1287.18,1131.21s11.09,72.73,119.56,62.25C1406.74,1193.46,1318.52,1178.22,1287.18,1131.21Z" transform="translate(-57.66 -333.92)"/><path class="cls-25" d="M1277.61,1504.1c42,.75,155.25,2.25,288.23,0a17.77,17.77,0,0,1,18,16.63l7.53,116.88a17.77,17.77,0,0,1-17.73,18.91H1273.21a17.78,17.78,0,0,1-17.76-18.39l4.08-116.85A17.78,17.78,0,0,1,1277.61,1504.1Z" transform="translate(-57.66 -333.92)"/><path class="cls-26" d="M1553.54,1580.28a23.78,23.78,0,1,1-23.78-23.78A23.78,23.78,0,0,1,1553.54,1580.28Z" transform="translate(-57.66 -333.92)"/><rect class="cls-8" x="942.83" y="844.1" width="292.17" height="589.86"/><polygon class="cls-27" points="862.89 1433.96 942.83 1433.96 942.83 844.11 862.89 884.53 862.89 1433.96"/><polygon class="cls-28" points="843.91 894.03 862.89 894.03 862.89 884.53 853.4 883 843.91 894.03"/><path class="cls-29" d="M1215.79,1124.43h-8.85v-30a7.11,7.11,0,0,0,3.21-9.34l-8.46-18a19.41,19.41,0,0,1-12.86,6l8.45,18a7.09,7.09,0,0,0,5.53,4v29.27h-61.1V1091a10.25,10.25,0,0,0,4.81-13.58l-12.21-26a28.09,28.09,0,0,1-18.57,8.71l12.2,26a10.27,10.27,0,0,0,9.64,5.9v32.45h-51.42v-14a5.65,5.65,0,0,0,2.55-7.42l-6.72-14.31a15.37,15.37,0,0,1-4.65,3.36,15.57,15.57,0,0,1-5.57,1.44l6.72,14.3a5.6,5.6,0,0,0,3.54,3v13.62h-11.41a21.44,21.44,0,0,0-21.44,21.44l116.51-3.67,71.53,3.67A21.43,21.43,0,0,0,1215.79,1124.43Z" transform="translate(-57.66 -333.92)"/><rect class="cls-27" x="942.83" y="805.52" width="312.38" height="38.59"/><polygon class="cls-28" points="843.91 894.03 942.83 844.11 942.83 805.52 843.91 858.08 843.91 894.03"/><path class="cls-24" d="M1142.43,1018.56a31.54,31.54,0,1,1-42-15.16A31.54,31.54,0,0,1,1142.43,1018.56Z" transform="translate(-57.66 -333.92)"/><path class="cls-24" d="M1086.46,1070.65a17.35,17.35,0,1,1-23.08-8.34A17.35,17.35,0,0,1,1086.46,1070.65Z" transform="translate(-57.66 -333.92)"/><path class="cls-24" d="M1207.32,1044.37a21.85,21.85,0,1,1-29.06-10.5A21.86,21.86,0,0,1,1207.32,1044.37Z" transform="translate(-57.66 -333.92)"/><polygon class="cls-12" points="672.01 1416.95 672.01 1403.84 657 1399.68 653.66 1401.15 653.09 1416.95 657.82 1430.73 672.01 1416.95"/><path class="cls-30" d="M716.48,1324.76s-19.69,23.39-66.05,27.52-11.65,28.6-11.65,28.6,55.87,8,75.39-5.06S716.48,1324.76,716.48,1324.76Z" transform="translate(-57.66 -333.92)"/><polygon points="639.38 1147.97 650.02 1407.46 674.82 1407.46 696.66 1211.33 668.02 1123.46 639.38 1147.97"/><polygon class="cls-12" points="767.89 1416.95 767.89 1403.84 752.88 1399.68 749.55 1401.15 748.98 1416.95 753.7 1430.73 767.89 1416.95"/><path class="cls-18" d="M627.34,1312l-117.88,27.76a8.62,8.62,0,0,0-6.41,10.36l40.41,171.6a8.62,8.62,0,0,0,10.36,6.41l117.88-27.76a8.62,8.62,0,0,0,6.41-10.36l-40.41-171.6A8.62,8.62,0,0,0,627.34,1312Z" transform="translate(-57.66 -333.92)"/><rect class="cls-16" x="530.45" y="1332.67" width="117.96" height="165.02" transform="translate(1429.92 2323.63) rotate(166.75)"/><path class="cls-31" d="M542.85,1345.75,605,1331.11l-.87-3.72a15.69,15.69,0,0,0-18.86-11.67l-31.65,7.46A15.66,15.66,0,0,0,542,1342Z" transform="translate(-57.66 -333.92)"/><rect class="cls-9" x="569.44" y="1348.55" width="52.23" height="4.61" transform="translate(1427.27 2195.27) rotate(166.75)"/><rect class="cls-9" x="573.32" y="1365" width="52.23" height="4.61" transform="translate(1438.69 2226.86) rotate(166.75)"/><rect class="cls-9" x="577.19" y="1381.46" width="52.23" height="4.61" transform="translate(1450.11 2258.45) rotate(166.75)"/><rect class="cls-9" x="581.07" y="1397.92" width="52.23" height="4.61" transform="translate(1461.51 2290.05) rotate(166.75)"/><rect class="cls-9" x="584.95" y="1414.38" width="52.23" height="4.61" transform="translate(1472.93 2321.64) rotate(166.75)"/><rect class="cls-9" x="588.82" y="1430.83" width="52.23" height="4.61" transform="translate(1484.35 2353.23) rotate(166.75)"/><rect class="cls-9" x="592.7" y="1447.29" width="52.23" height="4.61" transform="translate(1495.79 2384.8) rotate(166.75)"/><rect class="cls-9" x="596.57" y="1463.75" width="52.23" height="4.61" transform="translate(1507.2 2416.4) rotate(166.75)"/><rect class="cls-9" x="532.77" y="1360.24" width="29.63" height="33.78" transform="translate(1338.64 2258.13) rotate(166.75)"/><rect class="cls-9" x="542.99" y="1403.65" width="29.63" height="33.78" transform="translate(1368.76 2341.43) rotate(166.75)"/><rect class="cls-9" x="553.22" y="1447.05" width="29.63" height="33.78" transform="translate(1398.84 2424.77) rotate(166.75)"/><path class="cls-12" d="M631.35,1412.89a.74.74,0,0,1-.29,1.26c-4.38,1.19-18.13,5-18.09,6.19.06,1.4,12.43-1.71,13.16-.62s-11.42,3.82-11.12,5.31,11.29-1.37,11.64-.78-9.89,4.45-10.23,5.43,11.08-1.81,11.7-1.22-6.62,5.14-6.3,5.81.42,1.17,19.66-4.41l7.49-2.52,5-5.36-3.74-8s-24.11-9.17-25-8.55S624.6,1406.91,631.35,1412.89Z" transform="translate(-57.66 -333.92)"/><path class="cls-18" d="M707.68,1482.45l97.13,258.94,23.79-2s-29.61-237.39-47.33-260-56.56-17.72-56.56-17.72Z" transform="translate(-57.66 -333.92)"/><path class="cls-32" d="M761.87,1280.74S767,1254,752,1244.53s-30.65-7.76-41-1.41-16,27.35-10.75,39.06L735,1269.57Z" transform="translate(-57.66 -333.92)"/><path class="cls-12" d="M718.46,1325s12,7.11,21.35,0h0l-2.21-17.36-18.6-3.83-.54,21.19Z" transform="translate(-57.66 -333.92)"/><path class="cls-13" d="M718.71,1315.13l.29-11.32,18.87,5.86.53,4.25C734.22,1315.44,726.26,1317.28,718.71,1315.13Z" transform="translate(-57.66 -333.92)"/><path class="cls-14" d="M706.15,1280.19c1.07,3.27-.25,6.59-2.95,7.42s-5.75-1.14-6.82-4.41.25-6.59,2.94-7.42S705.08,1276.92,706.15,1280.19Z" transform="translate(-57.66 -333.92)"/><path class="cls-12" d="M705.57,1298.77a25.39,25.39,0,0,1-1.7-4.48,47.65,47.65,0,0,1-1.73-12.37c0-.82-.08-1.63-.16-2.44a25.62,25.62,0,0,1,1-10.17,27.38,27.38,0,0,1,26.26-18.86c16.18.08,28.47,13.4,27.22,28.61a6.09,6.09,0,0,1,5.35,0c3.12,1.65,3.92,6,1.8,9.84s-6.39,5.51-9.51,3.86a4.92,4.92,0,0,1-1.16-.84,25.53,25.53,0,0,1-27.3,20.77,24.77,24.77,0,0,1-16.06-8,11,11,0,0,1-.85-.91A22.92,22.92,0,0,1,705.57,1298.77Z" transform="translate(-57.66 -333.92)"/><path class="cls-15" d="M730,1279.79a2.35,2.35,0,0,0,2.15,2.53,2.39,2.39,0,0,0,2.61-2.09,2.34,2.34,0,0,0-2.15-2.52A2.37,2.37,0,0,0,730,1279.79Z" transform="translate(-57.66 -333.92)"/><path class="cls-15" d="M711.28,1278.88a2.32,2.32,0,0,0,2.15,2.52,2.36,2.36,0,0,0,2.6-2.08,2.32,2.32,0,0,0-2.15-2.52A2.36,2.36,0,0,0,711.28,1278.88Z" transform="translate(-57.66 -333.92)"/><path class="cls-32" d="M727.61,1275a22.61,22.61,0,0,1,3.5-.78,12.12,12.12,0,0,1,3.35,0,11.33,11.33,0,0,1,3.18.92l.4.16c.14.06.25.14.39.21l.78.4c.52.28,1,.63,1.59.92a10.49,10.49,0,0,0-1-1.55,8.21,8.21,0,0,0-1.42-1.27,7.87,7.87,0,0,0-3.64-1.45,8.5,8.5,0,0,0-3.92.38A7.62,7.62,0,0,0,727.61,1275Z" transform="translate(-57.66 -333.92)"/><path class="cls-32" d="M719.79,1274.23a7.35,7.35,0,0,0-3-2.32,8.29,8.29,0,0,0-3.86-.72,7.91,7.91,0,0,0-3.76,1.13,8.28,8.28,0,0,0-1.53,1.15,10.75,10.75,0,0,0-1.18,1.44c.61-.23,1.12-.53,1.67-.77l.82-.34.4-.17.41-.12a11.24,11.24,0,0,1,3.26-.65,12.22,12.22,0,0,1,3.33.29A23.06,23.06,0,0,1,719.79,1274.23Z" transform="translate(-57.66 -333.92)"/><path class="cls-33" d="M723.53,1274.17a17,17,0,0,1,.33,5,14,14,0,0,1-.41,2.53,6.43,6.43,0,0,1-1.24,2.48l-.29.28-.25.24c-.11.11-.27.2-.34.33a1.84,1.84,0,0,0-.43.75,2.18,2.18,0,0,0,.35,1.77,7.08,7.08,0,0,0,3.88,2.52,5.92,5.92,0,0,1-4.91-1.78,3.35,3.35,0,0,1-.84-2.83,2.75,2.75,0,0,1,.27-.76,2.84,2.84,0,0,1,.42-.66,4.76,4.76,0,0,1,.55-.55l.19-.19.16-.16a6.2,6.2,0,0,0,1-1.88,19.32,19.32,0,0,0,.63-2.27C723,1277.41,723.22,1275.8,723.53,1274.17Z" transform="translate(-57.66 -333.92)"/><path class="cls-16" d="M716.15,1293.28c.8,2.83,4.3,4.93,8.45,4.86s7.57-2.29,8.27-5.15Z" transform="translate(-57.66 -333.92)"/><path class="cls-32" d="M755.81,1279.89a4.28,4.28,0,0,1,2.81-1.41l-1.06-8.56-2.87-5.07s-11-13.51-11.38-13.84-8.54-4.53-9-4.74-11.61,1.91-11.61,1.91-19.81-3.25-16.09,6.9,18.28,15,19,14.49c-2.42-2.21-2.92-8.74-2.92-8.74C733.24,1271.45,752.77,1278.79,755.81,1279.89Z" transform="translate(-57.66 -333.92)"/><path class="cls-34" d="M646.3,1404.22c9.51,2.27,31.88,1.14,48.83-.19.14-14,.67-27.06,1.91-36.22,4.36-32.53,19.44-43,19.44-43a37.43,37.43,0,0,0,25.46-6.23c20.15.25,31.8,11.17,31.8,11.17,31,26.7,7.53,81.32,7.53,81.32l8.49,72.16c-19.17,6.55-97.58,2.61-97.58,2.61a281.15,281.15,0,0,0,3.27-46.36c-24.85-1.4-49.15-5.35-49.15-5.35C645.33,1428.74,646.3,1404.22,646.3,1404.22Z" transform="translate(-57.66 -333.92)"/><path class="cls-35" d="M749.79,1355.59a40.63,40.63,0,0,1-12.16,28.64,52.76,52.76,0,0,1-12.75,9.33,72.88,72.88,0,0,1-14.75,5.92c-.64.18-1.26.41-1.91.57l-1.94.48c-1.3.31-2.58.65-3.89.93l-3.93.74-2,.37-2,.28c-2.65.37-5.29.77-8,1l-4,.37c-1.34.1-2.68.15-4,.23a315.31,315.31,0,0,1-32.24-.2,209.93,209.93,0,0,0,32.3,1.9c10.8-.29,21.69-1.45,32.15-4.55a73.09,73.09,0,0,0,15.12-6.2,52.07,52.07,0,0,0,13-10,42.66,42.66,0,0,0,5-6.49,44.32,44.32,0,0,0,3.63-7.34,41.81,41.81,0,0,0,2-7.9A30.89,30.89,0,0,0,749.79,1355.59Z" transform="translate(-57.66 -333.92)"/><path class="cls-35" d="M646.3,1434.08a272.88,272.88,0,0,0,35.66,5.44,240.84,240.84,0,0,0,36.14.63c12-.82,24.13-2.61,35.53-6.85a61.27,61.27,0,0,0,16-8.56A39.91,39.91,0,0,0,781.27,1411,41.49,41.49,0,0,1,769,1423.88a64.4,64.4,0,0,1-16,7.82,110.35,110.35,0,0,1-17.32,4.27,168.17,168.17,0,0,1-17.78,2,290.1,290.1,0,0,1-35.87-.14q-9-.55-17.92-1.5C658.2,1435.74,652.25,1435,646.3,1434.08Z" transform="translate(-57.66 -333.92)"/><path class="cls-15" d="M976.88,689.56s16.9-12.5,52.62-7.31,41,25.11,40.83,52.91l-2.82,22.71s-10.44-.67-20.38-29.12c0,0-22,21.64-30.5,18.15s4.87-19.26,4.87-19.26-36.27,34.9-60.39,32.85c0,0-17-45.53,2.22-59.67,0,0-13.55-.45-14.05-3.25s7-6.32,19.84-3.7c0,0-7.75-19.43-2.43-21S976.88,689.56,976.88,689.56Z" transform="translate(-57.66 -333.92)"/><path class="cls-33" d="M1031,757.37a60.12,60.12,0,0,1,3.91,7.07,56.77,56.77,0,0,1,3,7.55,21.5,21.5,0,0,1,.86,4.09,7.13,7.13,0,0,1,0,1.13c0,.2-.07.41-.1.62a3.41,3.41,0,0,1-.29.66c-.07.11-.16.22-.24.33l-.21.19c-.14.12-.27.25-.41.36s-.58.43-.88.61a19.52,19.52,0,0,1-3.71,1.8,26.68,26.68,0,0,1-3.9,1.12,43.46,43.46,0,0,0,6.86-4c.26-.19.49-.41.72-.61l.33-.32.15-.16a.36.36,0,0,1,0-.09,3,3,0,0,0,.08-1.52,21,21,0,0,0-.88-3.75c-.75-2.52-1.69-5-2.6-7.53S1031.86,759.93,1031,757.37Z" transform="translate(-57.66 -333.92)"/><path class="cls-24" d="M1152.12,1492.66h0a64,64,0,0,1-64-64V1178.77h128v249.88A64,64,0,0,1,1152.12,1492.66Z" transform="translate(-57.66 -333.92)"/><rect class="cls-27" x="789.56" y="1354.56" width="567.79" height="80.21"/><rect class="cls-36" x="789.56" y="1354.56" width="153.26" height="80.21"/><path class="cls-10" d="M1581,1299.87s10.61-10.22-1.58-21.31c0,0,7.47-13.59-7.66-17.69,0,0-2.55-22.83-23.74-16.12,0,0-16.55-16.92-30.12-5.61,0,0-14.61-4.37-20.21,12.47,0,0-15.22,5.59-9.11,24.33,0,0-13.26,13.28-2.93,29.71,0,0-3.47,21.52,20.4,19.87,1.29,5.82,10,7.47,15.29,6.28,0,0,7.63,8,20.78-.2,1.66,1.39,10.41,8.18,15.83,2.17,0,0,17.87,3.36,16-12.26C1574,1321.51,1585.86,1313.83,1581,1299.87Z" transform="translate(-57.66 -333.92)"/><polygon class="cls-12" points="1430.78 1212.75 1433.97 1416.18 1439.16 1430.86 1454.75 1416.18 1469.53 1207.54 1430.78 1212.75"/><path class="cls-12" d="M1581.51,1553.56h-39s18.35,195.33,18.22,196.54,6.58,10,6.58,10l14.2-10Z" transform="translate(-57.66 -333.92)"/><polygon class="cls-12" points="1430.78 1212.75 1433.97 1416.18 1439.16 1430.86 1454.75 1416.18 1469.53 1207.54 1430.78 1212.75"/><path class="cls-12" d="M1581.51,1553.56h-39s18.35,195.33,18.22,196.54,6.58,10,6.58,10l14.2-10Z" transform="translate(-57.66 -333.92)"/><path class="cls-18" d="M1479.11,1719.11c11.08,4.44,28.29,8.89,47.3,4.83l3.54-162.47,2.63-28.6c2,1.74,3.18,2.57,3.18,2.57l9.49,185.61a98,98,0,0,0,46.82,2.93c.09-11.16-6.83-181.56-6.9-189.47-.51-57.13-18.17-65.49-18.17-65.49l-30.07-7.62-6.6,1.14c-10.51-3.45-29.53-7.39-37.36,5.73-11.09,18.59-10.44,75.9-10.44,75.9S1479,1711.25,1479.11,1719.11Z" transform="translate(-57.66 -333.92)"/><path class="cls-12" d="M1502.76,1410.93l-28.2-13,2.56,29.86s-53.39-24.24-56.09-26.68c-.9-.81-1.92-2.94-2.91-5.44a55.71,55.71,0,0,1-2.35-8.11c-.94-4.14-4.49-7.46-5.68-8.54a17.1,17.1,0,0,1-2.38-4.59.86.86,0,0,0-1.68.09l-.28,1.87a9.36,9.36,0,0,0,.76,4.73l-.74-.28-1.23,12.56,1.51,11,8.45,6.36s74.39,53.55,81.2,46.56C1503,1449.73,1502.76,1410.93,1502.76,1410.93Z" transform="translate(-57.66 -333.92)"/><path class="cls-36" d="M1496.35,1347.76s-5.78,1.38-14.13,11.72-15.8,38.94-15.8,38.94l26.67,14.57,17.36-34.55Z" transform="translate(-57.66 -333.92)"/><path class="cls-37" d="M1571.92,1512.66c-2.81,1-5.58,2.16-8.33,3.35s-5.45,2.45-8.15,3.75-5.36,2.63-8,4-5.28,2.78-7.88,4.24l-.21-.5a57.23,57.23,0,0,1,5.92-.91,59.83,59.83,0,0,1,6-.28,47.69,47.69,0,0,1,6,.34l1.48.19,1.47.27.73.13.72.17,1.45.35-1.46-.28-.73-.14-.74-.11-1.47-.21-1.48-.14c-.49-.05-1-.08-1.48-.1s-1-.07-1.48-.07l-1.49,0c-.5,0-1,0-1.49,0-2,0-4,.18-5.92.4a51.84,51.84,0,0,0-5.84.94l-1.78.39,1.57-.89c2.6-1.48,5.22-2.91,7.89-4.27s5.35-2.69,8.06-4,5.47-2.46,8.24-3.6c1.39-.55,2.79-1.1,4.2-1.6S1570.5,1513.13,1571.92,1512.66Z" transform="translate(-57.66 -333.92)"/><path class="cls-37" d="M1493,1511.53c1.43.46,2.86.92,4.26,1.44s2.81,1,4.2,1.61c2.78,1.14,5.53,2.33,8.24,3.59s5.4,2.6,8.06,4,5.29,2.78,7.9,4.26l1.56.9-1.77-.4a57,57,0,0,0-5.85-.94c-2-.21-3.94-.35-5.92-.39-.5,0-1,0-1.49,0l-1.48,0c-.5,0-1,.06-1.49.08s-1,0-1.48.1l-1.48.14-1.47.21-.74.1-.73.15-1.46.28,1.45-.35.72-.18.74-.13,1.47-.26,1.48-.19a49.39,49.39,0,0,1,6-.35,59.7,59.7,0,0,1,6,.29,53.88,53.88,0,0,1,5.92.9l-.21.5c-2.59-1.46-5.24-2.84-7.88-4.23s-5.32-2.72-8-4-5.4-2.55-8.15-3.75S1495.78,1512.56,1493,1511.53Z" transform="translate(-57.66 -333.92)"/><path class="cls-38" d="M1499,1478.53c2.44.43,4.89.78,7.35,1.1s4.92.6,7.39.83c4.93.48,9.88.79,14.84.9q3.72.08,7.43,0t7.42-.4c2.47-.22,4.93-.5,7.38-.89s4.87-.9,7.26-1.53c-2.38.68-4.8,1.22-7.24,1.67s-4.91.73-7.38,1-5,.36-7.43.45-5,.07-7.45,0c-5-.13-9.92-.44-14.85-1q-3.7-.39-7.39-.91C1503.85,1479.4,1501.4,1479,1499,1478.53Z" transform="translate(-57.66 -333.92)"/><path class="cls-26" d="M1554.81,1487.74a6.34,6.34,0,0,0,.4.83l.43.82.86,1.63,1.45,2.69,4.12,7.15c.57,1.09,6,10.51,7.27,12.61a53.77,53.77,0,0,1-4.82-5.88c-.65-1-1.26-2.11-1.88-3.18s-1.19-2.15-1.77-3.24c-1.14-2.18-2.25-4.37-3.27-6.61-.52-1.11-1-2.23-1.5-3.37-.23-.56-.47-1.13-.69-1.7A13.9,13.9,0,0,1,1554.81,1487.74Z" transform="translate(-57.66 -333.92)"/><path class="cls-39" d="M1607.3,1381.05c-12.13-14.63-26.14-30.51-38.39-36.69-4.69-2.37-15.81-2.84-22.28-3.9a151.13,151.13,0,0,0-33.51.12c-9,3.29-24.65,8.85-24.86,14.16-1,26.57-1.32,46.93-1.18,62.54,0,0-.44,56.6,0,68.68,0,0,61.48,13.25,92.93,5.28,0,0,5.19-74-2.27-93.94l3.18,4S1593.54,1398.47,1607.3,1381.05Z" transform="translate(-57.66 -333.92)"/><path class="cls-12" d="M1605.45,1383.35c-8.35,10.15-17.58,15.53-22.2,17.23l29.73,35.61-54.39,58.63,9.58,16.68c7.56-3.67,9.27-17.58,9.27-17.58s67.31-45,67.31-55.77C1644.75,1423.73,1605.45,1383.35,1605.45,1383.35Z" transform="translate(-57.66 -333.92)"/><path class="cls-40" d="M1605.92,1382.65c-.46.52-.88,1.08-1.37,1.59l-1.45,1.53-.71.77-.76.72-1.51,1.46c-.5.48-1,.93-1.56,1.39-1,1-2.17,1.76-3.25,2.64a58.27,58.27,0,0,1-7,4.51l-.92.49-.94.46c-.62.31-1.26.58-1.9.85-.32.15-.64.26-1,.39s-.65.26-1,.37-.9.31-1.35.44l-3.25-3.89-3.7-4.35c-2.45-2.9-5-5.76-7.46-8.64s-5-5.71-7.59-8.53-5.14-5.63-7.78-8.38c2.26,3.06,4.59,6.06,6.93,9s4.74,6,7.12,8.91,4.81,5.89,7.26,8.8l3.66,4.37,3.7,4.35.41.47.58-.15c.78-.21,1.45-.43,2.15-.69s1.36-.53,2-.83,1.33-.61,2-1l1-.5.94-.54a51.23,51.23,0,0,0,7.06-4.93l1.6-1.42c.54-.47,1-1,1.54-1.48s1-1,1.5-1.51l1.41-1.59.7-.8.66-.83,1.3-1.67c.83-1.13,1.58-2.32,2.37-3.48Z" transform="translate(-57.66 -333.92)"/><path class="cls-12" d="M1519.48,1340s12.21,7.23,21.72,0h0l-2.24-17.66-18.92-3.9-.56,21.56Z" transform="translate(-57.66 -333.92)"/><path class="cls-13" d="M1519.74,1329.94l.3-11.52,19.19,6,.54,4.32C1535.51,1330.25,1527.42,1332.13,1519.74,1329.94Z" transform="translate(-57.66 -333.92)"/><path class="cls-14" d="M1505.94,1289.64c.52,3.46-1.38,6.56-4.22,6.93s-5.58-2.13-6.09-5.59,1.38-6.57,4.23-6.93S1505.43,1286.18,1505.94,1289.64Z" transform="translate(-57.66 -333.92)"/><path class="cls-12" d="M1502.16,1308.17a25.56,25.56,0,0,1-.92-4.78,48.39,48.39,0,0,1,.38-12.71c.13-.82.21-1.64.27-2.47a26.17,26.17,0,0,1,2.79-10c5.38-10.58,17.55-16.51,29.59-14.39,16.21,2.86,26.24,18.33,22.37,33.37a6.17,6.17,0,0,1,5.36.92c2.85,2.19,2.9,6.75.11,10.18s-7.35,4.42-10.2,2.23a5.58,5.58,0,0,1-1-1,26,26,0,0,1-30.94,16.13,25.18,25.18,0,0,1-14.73-10.75,10.83,10.83,0,0,1-.7-1.06A23,23,0,0,1,1502.16,1308.17Z" transform="translate(-57.66 -333.92)"/><path class="cls-15" d="M1531.82,1293.34a2.37,2.37,0,0,0,1.72,2.9,2.42,2.42,0,0,0,3-1.64,2.38,2.38,0,0,0-1.72-2.9A2.41,2.41,0,0,0,1531.82,1293.34Z" transform="translate(-57.66 -333.92)"/><path class="cls-15" d="M1511.31,1289.21a2.38,2.38,0,0,0,1.72,2.9,2.41,2.41,0,0,0,3-1.64,2.36,2.36,0,0,0-1.72-2.9A2.41,2.41,0,0,0,1511.31,1289.21Z" transform="translate(-57.66 -333.92)"/><path class="cls-10" d="M1530.22,1288.08a22.93,22.93,0,0,1,3.65-.18,12.31,12.31,0,0,1,3.35.57,11.26,11.26,0,0,1,3,1.48l.37.23c.12.08.23.18.35.27l.71.54c.48.37.9.81,1.44,1.19a10.68,10.68,0,0,0-.78-1.73,8.27,8.27,0,0,0-1.2-1.52,7.94,7.94,0,0,0-3.4-2.08,8.48,8.48,0,0,0-4-.29A7.78,7.78,0,0,0,1530.22,1288.08Z" transform="translate(-57.66 -333.92)"/><path class="cls-10" d="M1520.65,1286a7.54,7.54,0,0,0-2.58-2.84,8.48,8.48,0,0,0-3.75-1.39,8,8,0,0,0-4,.49,8.56,8.56,0,0,0-1.73.89,10.09,10.09,0,0,0-1.43,1.25c.64-.13,1.21-.35,1.8-.49l.88-.2c.14,0,.28-.08.43-.1l.43-.06a11.3,11.3,0,0,1,3.38-.08,12.21,12.21,0,0,1,3.29.86A21.69,21.69,0,0,1,1520.65,1286Z" transform="translate(-57.66 -333.92)"/><path class="cls-33" d="M1524.41,1286.59a17.57,17.57,0,0,1-.52,5.05,13.41,13.41,0,0,1-.86,2.47,6.53,6.53,0,0,1-1.66,2.28l-.34.22-.3.2a3.51,3.51,0,0,0-.4.27,1.88,1.88,0,0,0-.55.68,2.2,2.2,0,0,0,0,1.84,7.27,7.27,0,0,0,3.47,3.2,6,6,0,0,1-4.62-2.64,3.37,3.37,0,0,1-.36-3,2.55,2.55,0,0,1,.4-.72,2.75,2.75,0,0,1,.54-.59,4.62,4.62,0,0,1,.64-.45,2.63,2.63,0,0,0,.23-.16l.19-.13a6.26,6.26,0,0,0,1.32-1.72,21.56,21.56,0,0,0,1-2.16C1523.27,1289.74,1523.82,1288.18,1524.41,1286.59Z" transform="translate(-57.66 -333.92)"/><path class="cls-16" d="M1513.72,1304.48c.32,3,3.46,5.69,7.64,6.33s8-1,9.18-3.74Z" transform="translate(-57.66 -333.92)"/><polygon class="cls-26" points="1338.72 880.37 1357.65 1305.77 1361.47 1305.67 1342.55 880.35 1338.72 880.37"/><path class="cls-12" d="M1398.44,1392.43a20,20,0,0,1,.22-2.93,3.23,3.23,0,0,1,2.25-2.41l1.3-.4.12,2.94h0c-.11,2.24-.15,2.08,3,3.43,4.43,1.92,2.58,4.24,2.58,4.24s-1.23,1.65-6.65-1.06C1401.21,1396.24,1398.61,1394.87,1398.44,1392.43Z" transform="translate(-57.66 -333.92)"/><path class="cls-12" d="M1398,1394.94a19.69,19.69,0,0,1,.21-2.79,3.07,3.07,0,0,1,2.14-2.29l1.24-.38.11,2.79h0c-.1,2.13-.14,2,2.81,3.26,4.22,1.83,2.45,4,2.45,4s-1.17,1.57-6.32-1C1400.62,1398.57,1398.14,1397.27,1398,1394.94Z" transform="translate(-57.66 -333.92)"/><path class="cls-12" d="M1398.66,1398.29a16.67,16.67,0,0,1,.18-2.36,2.58,2.58,0,0,1,1.81-1.94l1-.32.09,2.36h0c-.08,1.81-.12,1.68,2.38,2.77,3.57,1.54,2.07,3.41,2.07,3.41s-1,1.33-5.35-.85A4.33,4.33,0,0,1,1398.66,1398.29Z" transform="translate(-57.66 -333.92)"/><path class="cls-12" d="M1399.4,1388.83a19.88,19.88,0,0,1,.22-2.93,3.2,3.2,0,0,1,2.25-2.41l1.31-.4.11,2.93h0c-.11,2.24-.15,2.08,3,3.43,4.43,1.93,2.58,4.24,2.58,4.24s-1.23,1.65-6.65-1.06C1402.17,1392.63,1399.57,1391.27,1399.4,1388.83Z" transform="translate(-57.66 -333.92)"/><path class="cls-33" d="M1403.29,1386a8.89,8.89,0,0,0,.07,1.47,1.45,1.45,0,0,0,1,1c.9.43,1.86.75,2.79,1.21.22.13.45.25.67.39a4.88,4.88,0,0,1,.62.48,2.93,2.93,0,0,1,.91,1.3,2.24,2.24,0,0,1-.09,1.61,2.16,2.16,0,0,1-.2.36,1.3,1.3,0,0,1-.37.31,2.68,2.68,0,0,1-.8.26,5,5,0,0,1-1.6,0,12.35,12.35,0,0,1-1.51-.38,18.19,18.19,0,0,1-2.82-1.25,6.29,6.29,0,0,1-2.13-2.19,4.12,4.12,0,0,1-.43-1.45,3.66,3.66,0,0,1,0-.74l.06-.74,0,.74a3,3,0,0,0,0,.73,3.86,3.86,0,0,0,.52,1.34,6,6,0,0,0,2.11,2,21.37,21.37,0,0,0,2.76,1.14,6.73,6.73,0,0,0,2.89.37,2,2,0,0,0,.64-.2.76.76,0,0,0,.21-.16,1.28,1.28,0,0,0,.16-.28,1.7,1.7,0,0,0,.09-1.29,2.57,2.57,0,0,0-.77-1.13,6.47,6.47,0,0,0-.56-.45c-.2-.14-.41-.26-.62-.39-.86-.48-1.82-.84-2.72-1.33a3.14,3.14,0,0,1-.64-.46,1.25,1.25,0,0,1-.34-.7A7.41,7.41,0,0,1,1403.29,1386Z" transform="translate(-57.66 -333.92)"/><path class="cls-33" d="M1407.16,1394.16a2.65,2.65,0,0,1,1.2,1.94,2.25,2.25,0,0,1-.29,1.16.8.8,0,0,1-.22.27,1.34,1.34,0,0,1-.27.17,1.87,1.87,0,0,1-.6.21,5.58,5.58,0,0,1-2.41-.12,14.93,14.93,0,0,1-2.25-.77c-.36-.14-.71-.33-1.06-.5a5.36,5.36,0,0,1-1-.65,5.67,5.67,0,0,1-1.52-1.82,4.53,4.53,0,0,1-.37-1.13,3.79,3.79,0,0,1,0-.58l0-.58a19,19,0,0,1,.34-2.26c-.06.76-.09,1.51-.09,2.27v.55a4.37,4.37,0,0,0,.08.54,3.89,3.89,0,0,0,.41,1,5.62,5.62,0,0,0,1.47,1.64,5.47,5.47,0,0,0,.94.59c.35.16.69.34,1,.48a15,15,0,0,0,2.16.76,5.61,5.61,0,0,0,2.22.21,1.38,1.38,0,0,0,.89-.44,2.11,2.11,0,0,0,.32-1,2,2,0,0,0-.26-1A4,4,0,0,0,1407.16,1394.16Z" transform="translate(-57.66 -333.92)"/><path class="cls-33" d="M1407.17,1397.75a1.9,1.9,0,0,1,0,1.63,1,1,0,0,1-.25.38,1.36,1.36,0,0,1-.39.25,3,3,0,0,1-.87.22,8,8,0,0,1-3.37-.63c-.52-.22-1-.44-1.55-.7a5.34,5.34,0,0,1-1.4-1,5.58,5.58,0,0,1-1-1.35,3.52,3.52,0,0,1-.37-1.61,4.55,4.55,0,0,0,1.66,2.69,5.62,5.62,0,0,0,1.35.86c.5.23,1,.45,1.51.65a13,13,0,0,0,1.57.5,5.74,5.74,0,0,0,1.59.21,2.39,2.39,0,0,0,.77-.12,1.46,1.46,0,0,0,.33-.17.91.91,0,0,0,.22-.28A1.9,1.9,0,0,0,1407.17,1397.75Z" transform="translate(-57.66 -333.92)"/><path class="cls-33" d="M1406,1400a1.88,1.88,0,0,1,.65,1.35,1.93,1.93,0,0,1-.18.78.87.87,0,0,1-.11.18.91.91,0,0,1-.17.17,1.93,1.93,0,0,1-.38.19,3.41,3.41,0,0,1-1.61.11,7.69,7.69,0,0,1-1.52-.38,11.85,11.85,0,0,1-1.42-.6,6.69,6.69,0,0,1-.69-.37,4.11,4.11,0,0,1-.62-.48,3.52,3.52,0,0,1-1.31-2.66,3.91,3.91,0,0,0,1.57,2.37,4.89,4.89,0,0,0,.6.41,5.05,5.05,0,0,0,.66.31,13.74,13.74,0,0,0,1.38.56,7.84,7.84,0,0,0,1.42.38,3.19,3.19,0,0,0,1.41,0,1.34,1.34,0,0,0,.3-.12.29.29,0,0,0,.1-.08.64.64,0,0,0,.1-.13,1.59,1.59,0,0,0,.23-.64,1.63,1.63,0,0,0-.07-.69A2.88,2.88,0,0,0,1406,1400Z" transform="translate(-57.66 -333.92)"/><ellipse class="cls-8" cx="1344.95" cy="911.32" rx="75.05" ry="83.59"/><ellipse class="cls-41" cx="1344.95" cy="911.32" rx="68.78" ry="76.6"/><rect class="cls-12" x="1336.7" y="967.24" width="17.88" height="19.89"/><path class="cls-33" d="M1412.24,1313.09v-11.93h-17.88v10.15C1398.21,1313.61,1403.91,1314.93,1412.24,1313.09Z" transform="translate(-57.66 -333.92)"/><path class="cls-12" d="M1440.44,1265.57a6,6,0,0,0-6,.26c.67-19.62-13.72-36.13-31.85-35.43-18.12-.7-32.51,15.81-31.84,35.43a6,6,0,0,0-6-.26c-3.58,2-4.7,7.59-2.49,12.56s6.9,7.42,10.48,5.46a5.57,5.57,0,0,0,1.34-1c2.05,16.23,14.22,28.39,28.5,28.16,14.28.23,26.45-11.93,28.51-28.16a5.57,5.57,0,0,0,1.34,1c3.58,2,8.27-.48,10.48-5.46S1444,1267.53,1440.44,1265.57Z" transform="translate(-57.66 -333.92)"/><path class="cls-15" d="M1380.83,1222.62s9-8.46,29.37-7.09,24.29,13.22,25.44,30.15l-1.19,20.15s-5.3-6.06-12.2-22.88c0,0-11.42,14.27-16.39,12.58s1.88-12,1.88-12-23.27,22.3-37,22.27c0,0-7.25-26.1,2.93-35.67,0,0-7.67.4-8.08-1.28s3.66-4.19,11-3.24c0,0-5.25-11.44-2.32-12.63S1380.83,1222.62,1380.83,1222.62Z" transform="translate(-57.66 -333.92)"/><path class="cls-16" d="M1414.31,1288.75c-.79,3.93-4.83,7-9.79,7.19s-9.16-2.64-10.16-6.51Z" transform="translate(-57.66 -333.92)"/><path class="cls-12" d="M1400.84,1319.56l-6.48,1.49v.24a62.18,62.18,0,0,0,17.88-.2v0l-1-.9Z" transform="translate(-57.66 -333.92)"/><path class="cls-10" d="M1371.76,1206.9l-7.53-18.35,3-.07L1371,1198c1.4,3.54,2,5.23,2.3,6.3h.05c.24-1,.83-2.66,2-6.17l3.52-10,2.94-.08-6.89,18.71Z" transform="translate(-57.66 -333.92)"/><path class="cls-10" d="M1400.65,1196.85c.11,5.21-3,9.79-8.64,9.93-5.43.14-8.83-4.07-8.94-9.49-.11-5.13,3.23-9.68,8.64-9.81S1400.55,1191.73,1400.65,1196.85Zm-14.68.3c.08,3.87,2.19,7.22,6.1,7.12s5.75-3.51,5.67-7.29-2.14-7.09-6.11-7C1387.91,1190.08,1385.9,1193.43,1386,1197.15Z" transform="translate(-57.66 -333.92)"/><path class="cls-10" d="M1408.1,1190l-6.23.16,0-2.55,15.2-.38,0,2.55-6.21.15.32,16-2.76.07Z" transform="translate(-57.66 -333.92)"/><path class="cls-10" d="M1432.51,1196.94l-9.81.25.12,5.89,10.84-.27-.3,2.55-13.24.33-.37-18.52,13.08-.33.05,2.54-10.33.26.1,5,9.81-.25Z" transform="translate(-57.66 -333.92)"/><path class="cls-10" d="M1557.45,1264.44l.74,17-39.82-9.59s-4.35,3.88-5,3.8-5.72-2.23-5.53-3,14-19.08,14-19.08,13.2,3,14.38,3.3S1557.45,1264.44,1557.45,1264.44Z" transform="translate(-57.66 -333.92)"/><path class="cls-8" d="M1557.47,1291.1s-20.21-17.86-53.83-10.59l-.08-.38a9.45,9.45,0,0,1,6.87-10.87c7.69-2.1,24.41-3.76,46,10.85a7.09,7.09,0,0,1,1.34,10.64C1557.7,1290.87,1557.59,1291,1557.47,1291.1Z" transform="translate(-57.66 -333.92)"/><rect class="cls-12" x="1758.47" y="1332.75" width="17.73" height="42.95" transform="matrix(0.99, -0.13, 0.13, 0.99, -220.4, -89.75)"/><path class="cls-12" d="M1796.1,1291.5a6.56,6.56,0,0,0-5.85,1,31.53,31.53,0,0,0-62.51,8.29,6.59,6.59,0,0,0-5.91.55c-3.28,2.2-3.72,7.3-1,11.4s7.64,5.64,10.92,3.44a5.9,5.9,0,0,0,1.2-1.08c3.91,14,17.28,23.16,31.26,21.1,14-1.66,24.56-14,24.68-28.52a6.09,6.09,0,0,0,1.44.73c3.74,1.26,8.06-1.5,9.64-6.17S1799.84,1292.77,1796.1,1291.5Z" transform="translate(-57.66 -333.92)"/><path class="cls-15" d="M1751.91,1303.85a2.65,2.65,0,1,1-3.1-2.11A2.64,2.64,0,0,1,1751.91,1303.85Z" transform="translate(-57.66 -333.92)"/><path class="cls-15" d="M1774.59,1301.09a2.66,2.66,0,1,1-3.1-2.11A2.66,2.66,0,0,1,1774.59,1301.09Z" transform="translate(-57.66 -333.92)"/><path class="cls-15" d="M1754.09,1298.09a26,26,0,0,0-4-.53,13.37,13.37,0,0,0-3.7.34,12.37,12.37,0,0,0-3.42,1.37l-.43.23c-.14.08-.26.18-.4.27l-.82.54c-.55.38-1,.82-1.67,1.2a11.46,11.46,0,0,1,1-1.86,9.41,9.41,0,0,1,1.43-1.6,8.69,8.69,0,0,1,3.88-2,9,9,0,0,1,4.38,0A8.36,8.36,0,0,1,1754.09,1298.09Z" transform="translate(-57.66 -333.92)"/><path class="cls-15" d="M1764.68,1296.64a8.44,8.44,0,0,1,3-2.94,9,9,0,0,1,4.19-1.22,8.76,8.76,0,0,1,4.29.91,9.38,9.38,0,0,1,1.8,1.16,12.38,12.38,0,0,1,1.46,1.53c-.7-.2-1.3-.49-1.93-.71l-.94-.3c-.15,0-.3-.11-.46-.15l-.46-.1a12.21,12.21,0,0,0-3.68-.41,13,13,0,0,0-3.65.67A24.31,24.31,0,0,0,1764.68,1296.64Z" transform="translate(-57.66 -333.92)"/><path class="cls-42" d="M1788.5,1258.25c-6.42-10.24-29.49-15.77-43.3-12,0,0,.42,3.57,1.84,5.39-1.65-1.63-8-6.4-21.62-1.22,0,0,2.5,4.35,3.77,5.95a24.15,24.15,0,0,1-9.18-.78s-3.45,8.12,1,15l-5-1.28s3.74,16.34,7,26.22h0c.6,3,1.13,5,1.13,5,.26,0,3-.78,7.24,2.51l.74-.5c2.93-2,1.68-16.26,5.92-22.6,8.12-4.79,27-7.92,34-6.64,8.17,1.5,10.94,20.59,14.86,22l.85.29c2.48-4.48,6.07-4.23,6.33-4.27C1794.1,1291.2,1794.92,1268.5,1788.5,1258.25Z" transform="translate(-57.66 -333.92)"/><path class="cls-33" d="M1759.37,1295.05a40,40,0,0,1,3,4.22,37.83,37.83,0,0,1,2.42,4.59,14.42,14.42,0,0,1,.83,2.53c0,.23.06.47.07.72s0,.27,0,.4a1.66,1.66,0,0,1-.13.44,1.59,1.59,0,0,1-.13.22l-.12.14c-.08.08-.15.17-.24.25a5.3,5.3,0,0,1-.51.45,12.22,12.22,0,0,1-2.23,1.4,16.56,16.56,0,0,1-2.4,1,27.65,27.65,0,0,0,4.08-3c.15-.14.28-.3.42-.44l.18-.23.09-.11a.14.14,0,0,1,0-.06,2,2,0,0,0-.05-1,13.12,13.12,0,0,0-.82-2.32c-.65-1.55-1.42-3.07-2.17-4.6S1760.09,1296.61,1759.37,1295.05Z" transform="translate(-57.66 -333.92)"/><path class="cls-16" d="M1770.09,1316.33c-.29,2.71-3.08,5.13-6.77,5.66s-7-1-8.09-3.52Z" transform="translate(-57.66 -333.92)"/><path class="cls-12" d="M1744.21,1345.43l43.25-5.74-9.16,20.84s-19.27,3.45-21.17,2.8S1744.21,1345.43,1744.21,1345.43Z" transform="translate(-57.66 -333.92)"/><path class="cls-43" d="M1733.5,1479.4s-19.13,170.59-16,230l33.79,4,35.18-197.36,4.45.17,22.67,198.5h30.67s5.06-198.16-11.48-254S1733.5,1479.4,1733.5,1479.4Z" transform="translate(-57.66 -333.92)"/><path class="cls-12" d="M1745.39,1722.15l-.7,24.71-16.4,11.89s-6.23-11.86-6.07-13.31,0-29.78,0-29.78Z" transform="translate(-57.66 -333.92)"/><path class="cls-12" d="M1819.26,1722.15l.7,24.71,16.4,11.89s5.37-11.86,5.22-13.31.86-29.78.86-29.78Z" transform="translate(-57.66 -333.92)"/><path class="cls-34" d="M1716.5,1707.22l35.55,4.24a1.71,1.71,0,0,1,1.47,2l-2.41,12.53a1.71,1.71,0,0,1-1.9,1.37l-33.29-4.6a1.71,1.71,0,0,1-1.47-1.71l.15-12.17A1.7,1.7,0,0,1,1716.5,1707.22Z" transform="translate(-57.66 -333.92)"/><path class="cls-12" d="M1695.36,1379.32l11-32.17-9.13-2c-19.34-.59-37.58-9.62-40.53-12.69-6.25-6.51,15.81-50.09,15.81-50.09l-17.07-3.45s-39.28,52.63-22.52,70.62,57.79,29.38,57.79,29.38Z" transform="translate(-57.66 -333.92)"/><path class="cls-12" d="M1843.37,1359.68l-19-28.19,8.28-4.35c18.52-5.61,33.78-19.08,35.82-22.81,4.34-7.92-28.32-44.24-28.32-44.24l15.58-7.79s51.64,40.58,40.16,62.31-48.14,43.44-48.14,43.44Z" transform="translate(-57.66 -333.92)"/><path class="cls-34" d="M1847.21,1708.17l-35.54,4.24a1.7,1.7,0,0,0-1.47,2l2.4,12.53a1.7,1.7,0,0,0,1.91,1.36l33.29-4.6a1.7,1.7,0,0,0,1.47-1.7l-.15-12.17A1.71,1.71,0,0,0,1847.21,1708.17Z" transform="translate(-57.66 -333.92)"/><path class="cls-25" d="M1851.18,1359.39l-18.26-34.4c-11.22,5.09-28.77,9.67-37.73,11.84a35.79,35.79,0,0,0-10.51,4.42l-.36.23a44.9,44.9,0,0,1-36.61,4.85l-.4-.12a35.74,35.74,0,0,0-11.3-1.53c-9.23.24-27.36.4-39.52-1.6l-8.66,38a154.32,154.32,0,0,0,35.45,3.16l5.52,109.29h0A254.71,254.71,0,0,0,1840.06,1479l.89-.32-23.17-107A153.84,153.84,0,0,0,1851.18,1359.39Z" transform="translate(-57.66 -333.92)"/><path class="cls-44" d="M1883.85,1248.6l-264.44,35.08a10,10,0,0,1-11.2-8.58l-18.63-140.48a10,10,0,0,1,8.58-11.21l264.43-35.07a10,10,0,0,1,11.21,8.58l18.63,140.48A10,10,0,0,1,1883.85,1248.6Z" transform="translate(-57.66 -333.92)"/><path class="cls-12" d="M1674,1276.42s4.91-2,5-6,2.86-2.18,3.09-.41,3.1,9.81-9.59,12.33-17.07-3.45-17.07-3.45Z" transform="translate(-57.66 -333.92)"/><path class="cls-12" d="M1837.22,1254.76s-5.25-.6-6.44-4.49-3.32-1.35-3.09.41-.43,10.28,12.48,9.41,15.58-7.79,15.58-7.79Z" transform="translate(-57.66 -333.92)"/><rect class="cls-45" x="1610.29" y="1133.45" width="249.52" height="9.57" transform="translate(-192.26 -95.91) rotate(-7.56)"/><rect class="cls-45" x="1614.15" y="1162.52" width="249.52" height="9.57" transform="translate(-196.05 -95.14) rotate(-7.56)"/><rect class="cls-45" x="1618" y="1191.59" width="249.52" height="9.57" transform="translate(-199.83 -94.39) rotate(-7.56)"/><rect class="cls-45" x="1662.06" y="1220.66" width="169.11" height="9.57" transform="translate(-203.62 -93.63) rotate(-7.56)"/><path class="cls-29" d="M2068.28,1787.85H153.89a10,10,0,0,1-10-10h0a10,10,0,0,1,10-10H2068.28a10,10,0,0,1,10,10h0A10,10,0,0,1,2068.28,1787.85Z" transform="translate(-57.66 -333.92)"/><path class="cls-12" d="M447.33,1317l.89,12.56s19.73,5.56,20.13,5.4,4.76-2.73,4.76-2.73l-.52-5.5a49.05,49.05,0,0,1,.05-6.37c.28-1.17-22-5.7-22-5.7Z" transform="translate(-57.66 -333.92)"/><path class="cls-25" d="M474.81,1332.78s54,15.74,78.25,64.43a13.37,13.37,0,0,1-1.59,14.45c-7.35,9-23.71,24.63-54.37,35.33,0,0-5.75-1.91-6.46-9.33,0,0,29.18-26.55,36.6-32.77l-40.91-32.06Z" transform="translate(-57.66 -333.92)"/><path class="cls-12" d="M488.78,1443.43l9.47-6.38,4.69,7.78s-6.54,24.28-7.2,31c0,0-2.39.76-2.72-.63S488.78,1443.43,488.78,1443.43Z" transform="translate(-57.66 -333.92)"/><path d="M429.54,1286.59s-6.12-25.11,8.46-34.52,30-8.36,40.57-2.73,16.83,25.29,12.11,36.52l-34.95-10.72Z" transform="translate(-57.66 -333.92)"/><polygon class="cls-12" points="430.31 1417.82 424.02 1396.52 444.44 1394.36 445.68 1395.76 449.1 1414.97 439.46 1424.69 430.31 1417.82"/><polygon class="cls-12" points="302.54 1391.3 313.15 1371.8 329.12 1384.7 329.01 1386.57 317.84 1402.58 304.15 1402.63 302.54 1391.3"/><path class="cls-12" d="M338.13,1288.66a.7.7,0,0,1-1.23,0c-1.95-3.84-8.16-15.87-9.25-15.59-1.29.32,4,11.21,3.13,12.09s-5.76-9.86-7.09-9.29,3.46,10.22,3,10.66-6.05-8.32-7-8.45,3.84,9.93,3.41,10.63-6.06-5.15-6.62-4.73-1,.62,7.91,17.41l3.8,6.46,5.94,3.6,6.68-5s3.83-24.16,3.09-24.85S342.38,1281.24,338.13,1288.66Z" transform="translate(-57.66 -333.92)"/><path class="cls-18" d="M428.74,1451s-29,37.45-22.16,97.06,5.35,81,5.35,81-37.45,34.39-48.92,84.07c0,0,16.44,11.47,27.52,13.38,0,0,55-84.07,59.23-94s14.14-180,14.14-180Z" transform="translate(-57.66 -333.92)"/><path class="cls-18" d="M455.39,1476.4l6.21,114.67s9.17,121.26,20.89,146.73h26L495.74,1453H457Z" transform="translate(-57.66 -333.92)"/><path class="cls-24" d="M502.5,1379.56a67.06,67.06,0,0,0-24.28-44.73,14,14,0,0,0-5.66-2.79,83.11,83.11,0,0,0-16.56-1.65H444.18s-19,1.06-27.41,3.69-41.66,17.4-45.35,15.29-29.53-49-29.53-49l-14.23,7.38s9,65.67,33.74,70.54,49-1.47,49-1.47,4.74,65.91,16.87,77.51c0,0,47.89,3.25,65.69,1.2a7.28,7.28,0,0,0,6.33-6.07C501.21,1437.66,505.42,1406.66,502.5,1379.56Z" transform="translate(-57.66 -333.92)"/><path class="cls-12" d="M487.21,1343.72a67.14,67.14,0,0,0-9-8.87,14,14,0,0,0-5.68-2.81,83.11,83.11,0,0,0-16.56-1.65H444.18s-3.23.18-7.61.58C446.11,1338.25,464,1348.1,487.21,1343.72Z" transform="translate(-57.66 -333.92)"/><path class="cls-33" d="M446.88,1312.91s.6,4.62,1,10.21a24.22,24.22,0,0,0,18.37,5.3,24,24,0,0,0,6.35-1.74c-.16-3.65-.1-7,.46-8.65C474.6,1313.58,446.88,1312.91,446.88,1312.91Z" transform="translate(-57.66 -333.92)"/><path class="cls-14" d="M486.13,1290.3c-1.24,3.38-.06,6.93,2.65,7.92s5.9-.94,7.15-4.32.06-6.92-2.65-7.92S487.38,1286.92,486.13,1290.3Z" transform="translate(-57.66 -333.92)"/><path class="cls-12" d="M485.85,1309.83a26.59,26.59,0,0,0,1.93-4.63,51.5,51.5,0,0,0,2.35-12.91c.05-.85.16-1.7.28-2.55a27.86,27.86,0,1,0-55.44-2.91,6,6,0,0,0-5.43-.24c-3.26,1.59-4.28,6.18-2.3,10.25s6.24,6.07,9.49,4.48a5.15,5.15,0,0,0,1.22-.83c1.86,13.58,13.39,23.72,26.78,23a25,25,0,0,0,16.71-7.64c.29-.26.59-.57.91-.92A24.17,24.17,0,0,0,485.85,1309.83Z" transform="translate(-57.66 -333.92)"/><path class="cls-15" d="M460.79,1290.65a2.61,2.61,0,1,1-2.74-2.48A2.6,2.6,0,0,1,460.79,1290.65Z" transform="translate(-57.66 -333.92)"/><path class="cls-15" d="M484,1290.65a2.62,2.62,0,1,1-2.75-2.48A2.62,2.62,0,0,1,484,1290.65Z" transform="translate(-57.66 -333.92)"/><path d="M463,1286.29a15.87,15.87,0,0,0-3.68-1.41,11.74,11.74,0,0,0-3.82-.29,10.09,10.09,0,0,0-1.87.35c-.31.08-.61.19-.91.3l-.45.18a3.49,3.49,0,0,0-.44.2,18.89,18.89,0,0,0-3.35,2.1,10.53,10.53,0,0,1,3-2.75,9,9,0,0,1,1.89-.88,9.25,9.25,0,0,1,6.16.09,10.55,10.55,0,0,1,1.86.88A8.08,8.08,0,0,1,463,1286.29Z" transform="translate(-57.66 -333.92)"/><path d="M473.54,1286.29a8.44,8.44,0,0,1,1.62-1.23,10.55,10.55,0,0,1,1.86-.88,9.25,9.25,0,0,1,6.16-.09,9.21,9.21,0,0,1,1.88.88,10.56,10.56,0,0,1,3,2.75,18.89,18.89,0,0,0-3.35-2.1,4.43,4.43,0,0,0-.45-.2c-.15-.06-.29-.13-.44-.18-.31-.11-.6-.22-.91-.3a10,10,0,0,0-1.88-.35,11.7,11.7,0,0,0-3.81.29A16.12,16.12,0,0,0,473.54,1286.29Z" transform="translate(-57.66 -333.92)"/><path class="cls-16" d="M410.82,1376.37a21,21,0,0,0,1.88-2.29,24.33,24.33,0,0,0,1.61-2.51,24.73,24.73,0,0,0,1.31-2.69,26,26,0,0,0,1-2.85,16.16,16.16,0,0,1-.64,3c-.14.49-.33,1-.51,1.44s-.39.94-.63,1.4a20.52,20.52,0,0,1-1.57,2.63,18,18,0,0,1-1.54,1.94,10.2,10.2,0,0,0,1.57.19,10.69,10.69,0,0,0,2.19-.1c.37,0,.73-.13,1.09-.2s.71-.19,1.06-.33a12.47,12.47,0,0,0,2-1,9.16,9.16,0,0,1-4.08,2,9.81,9.81,0,0,1-2.3.23A9.22,9.22,0,0,1,411,1377l-.56-.15Z" transform="translate(-57.66 -333.92)"/><path class="cls-38" d="M489.51,1491.63c-1.56,1.52-3.07,3.09-4.54,4.69s-2.9,3.26-4.3,4.92-2.79,3.35-4.14,5.06-2.68,3.43-4,5.18l-.28-.29a39.27,39.27,0,0,1,7.55-4.24,34.12,34.12,0,0,1,4.07-1.49l1-.29,1.06-.25.52-.12.54-.09,1.06-.17-1.05.23-.53.11-.52.14-1,.28-1,.33c-.34.1-.68.23-1,.36l-1,.37-1,.41-1,.44c-1.31.6-2.58,1.26-3.82,2a39,39,0,0,0-3.61,2.33l-1.06.78.77-1.06c1.29-1.77,2.61-3.5,4-5.2s2.76-3.39,4.18-5,2.91-3.26,4.41-4.84c.76-.78,1.53-1.56,2.32-2.31S488.7,1492.36,489.51,1491.63Z" transform="translate(-57.66 -333.92)"/><path class="cls-38" d="M452.92,1510.94c-1.68-2.27-3.4-4.5-5.18-6.68s-3.59-4.34-5.43-6.46-3.78-4.18-5.73-6.21c-1-1-2-2-3-3s-2.07-1.9-3.12-2.84c2,2,4,4,5.9,6s3.77,4.17,5.59,6.3,3.62,4.3,5.38,6.49c1.41,1.78,2.82,3.56,4.2,5.37-1.11-.73-2.25-1.41-3.41-2.06a51.81,51.81,0,0,0-5-2.44,42.76,42.76,0,0,0-5.26-1.88l-1.34-.37-1.37-.31-.68-.15-.69-.11-1.37-.22,1.36.28.68.14.68.18,1.34.35,1.33.42c.44.13.87.29,1.31.45s.88.31,1.3.48l1.29.52c.43.17.85.37,1.27.56,1.69.76,3.34,1.61,4.95,2.52a52.65,52.65,0,0,1,4.67,3l1.38,1Z" transform="translate(-57.66 -333.92)"/><path class="cls-46" d="M463.49,1305.9a7.22,7.22,0,0,1,6,.79s3.12-2,5.58-.09a5.93,5.93,0,0,1-6.27,4.34A5.3,5.3,0,0,1,463.49,1305.9Z" transform="translate(-57.66 -333.92)"/><path class="cls-33" d="M460.8,1304.23a15.28,15.28,0,0,0,1.82,1.28,16.59,16.59,0,0,0,1.95,1,13.2,13.2,0,0,0,4.21,1.12,11.45,11.45,0,0,0,4.31-.47,16.13,16.13,0,0,0,4-2,14.13,14.13,0,0,1-1.79,1.37,12,12,0,0,1-2,1,10.38,10.38,0,0,1-2.21.56,11,11,0,0,1-2.29.06,11.78,11.78,0,0,1-4.35-1.29A12.92,12.92,0,0,1,460.8,1304.23Z" transform="translate(-57.66 -333.92)"/><path class="cls-33" d="M470.47,1289.45a30.41,30.41,0,0,1,1.94,3.71,29.45,29.45,0,0,1,1.46,3.94,11,11,0,0,1,.39,2.12c0,.19,0,.38,0,.59s0,.21-.06.31a1.48,1.48,0,0,1-.16.34l-.13.17-.1.09-.22.18c-.16.11-.31.22-.46.31a9.91,9.91,0,0,1-1.94.88,13,13,0,0,1-2,.54,21.85,21.85,0,0,0,3.6-2,3.86,3.86,0,0,0,.38-.3l.17-.16.09-.08a.08.08,0,0,1,0,0,1.68,1.68,0,0,0,.06-.79,10.77,10.77,0,0,0-.41-2c-.36-1.31-.81-2.61-1.25-3.92S470.89,1290.78,470.47,1289.45Z" transform="translate(-57.66 -333.92)"/><path d="M432.09,1281.27l2.21-2,1-6.56,6.48-15.36,32.28-5s-.42,2.53-.83,5.29c3.76,1.56,9.44,3.89,9.44,3.89S464,1282.61,435,1286.83a6.27,6.27,0,0,0-5.43-.24Z" transform="translate(-57.66 -333.92)"/><path d="M451.09,1248.11s-3.52-32.27-29.08-34.83-37.07,9.27-52.72,2.56c0,0-2.24,34.19,29.07,27.8s47,10.87,47,10.87Z" transform="translate(-57.66 -333.92)"/><rect class="cls-47" x="979.33" y="1243.48" width="220.06" height="14.95"/><rect class="cls-47" x="979.33" y="1284.83" width="220.06" height="14.95"/><rect class="cls-48" x="259.27" y="1196.86" width="45.81" height="14.82" transform="translate(478.99 -340.08) rotate(25.06)"/><rect class="cls-48" x="717.89" y="514.22" width="45.81" height="14.82" transform="translate(233 -598.59) rotate(25.06)"/><rect class="cls-48" x="1874.67" y="902.17" width="45.81" height="14.82" transform="translate(506.21 -1052.03) rotate(25.06)"/><rect class="cls-48" x="1796.35" y="447.83" width="45.81" height="14.82" transform="translate(306.39 -1061.61) rotate(25.06)"/><rect class="cls-48" x="1232.53" y="543.89" width="45.81" height="14.82" transform="translate(294.01 -813.77) rotate(25.06)"/><rect class="cls-49" x="220.4" y="697.99" width="45.81" height="14.82" transform="translate(387.82 -346.79) rotate(34.75)"/><rect class="cls-49" x="1830.24" y="748.71" width="45.81" height="14.82" transform="translate(703.85 -1255.36) rotate(34.75)"/><rect class="cls-49" x="1484.29" y="872.56" width="45.81" height="14.82" transform="translate(712.72 -1036.07) rotate(34.75)"/><rect class="cls-49" x="75.85" y="1157.48" width="45.81" height="14.82" transform="matrix(0.82, 0.57, -0.57, 0.82, 623.95, -182.45)"/><rect class="cls-8" x="284.32" y="1018.11" width="45.81" height="14.82" transform="translate(-752.69 1067.83) rotate(-93.9)"/><rect class="cls-8" x="2026.09" y="1053.26" width="45.81" height="14.82" transform="translate(1072.42 2843.1) rotate(-93.9)"/><rect class="cls-8" x="485.57" y="554.37" width="45.81" height="14.82" transform="translate(-75.09 773.34) rotate(-93.9)"/><rect class="cls-8" x="67.91" y="1390.88" width="45.81" height="14.82" transform="translate(-1355.72 1250.03) rotate(-93.9)"/><rect class="cls-10" x="172.02" y="902.17" width="45.81" height="14.82" transform="translate(686.28 1326.59) rotate(155.93)"/><rect class="cls-10" x="50.86" y="744.08" width="45.81" height="14.82" transform="translate(-639.92 791.46) rotate(-114.07)"/><rect class="cls-10" x="396.75" y="809.87" width="45.81" height="14.82" transform="translate(1078.55 1058.35) rotate(155.92)"/><rect class="cls-10" x="355.36" y="420.8" width="45.81" height="14.82" transform="translate(840.66 330.93) rotate(155.92)"/><rect class="cls-10" x="1982.83" y="711.69" width="45.81" height="14.82" transform="translate(4072.69 223.53) rotate(155.93)"/><rect class="cls-10" x="1732.32" y="1056.1" width="45.81" height="14.82" transform="translate(3733.95 984.54) rotate(155.92)"/><path class="cls-16" d="M383.73,1767.42l-37.59-27.23a2.6,2.6,0,0,1-.58-3.63h0a2.6,2.6,0,0,1,3.63-.58l37.58,27.23a2.59,2.59,0,0,1,.58,3.63h0A2.59,2.59,0,0,1,383.73,1767.42Z" transform="translate(-57.66 -333.92)"/><path class="cls-15" d="M358.25,1723.07l-9.85,10.69c-1.22,1.32-1.36,3.22-.3,4l36.83,26.68a3.32,3.32,0,0,0,3.65,0c1.35-.77,2.7-2.43,2.74-6,.08-6.85-9.37-15.53-12.12-23.19a2.38,2.38,0,0,0-.83-1.1l-16.55-12C360.86,1721.51,359.35,1721.87,358.25,1723.07Z" transform="translate(-57.66 -333.92)"/><path class="cls-16" d="M371.45,1739.54h0a1,1,0,0,1,.48-1.11c1.89-1.08,7-3.34,11,.79a.81.81,0,0,1-.15,1h0a.64.64,0,0,1-.93.15c-3.61-3.69-8-1.64-9.58-.72C371.91,1739.91,371.57,1739.83,371.45,1739.54Z" transform="translate(-57.66 -333.92)"/><path class="cls-16" d="M374.19,1743.81h0a1,1,0,0,1,.48-1.1c1.88-1.08,7-3.35,11,.79a.81.81,0,0,1-.16,1h0a.65.65,0,0,1-.93.15c-3.61-3.69-8-1.64-9.58-.72C374.65,1744.18,374.31,1744.11,374.19,1743.81Z" transform="translate(-57.66 -333.92)"/><path class="cls-16" d="M376.73,1747.79h0a1,1,0,0,1,.48-1.1c1.88-1.08,7-3.34,11,.79a.81.81,0,0,1-.16,1h0a.65.65,0,0,1-.93.15c-3.61-3.69-8-1.64-9.58-.72C377.19,1748.16,376.85,1748.09,376.73,1747.79Z" transform="translate(-57.66 -333.92)"/><path class="cls-16" d="M530.69,1768.32l-46.41,0a2.59,2.59,0,0,1-2.6-2.6h0a2.6,2.6,0,0,1,2.6-2.59l46.42,0a2.59,2.59,0,0,1,2.59,2.6h0A2.59,2.59,0,0,1,530.69,1768.32Z" transform="translate(-57.66 -333.92)"/><path class="cls-15" d="M484.06,1747.32l-1.72,14.44c-.21,1.78.78,3.4,2.09,3.4l45.48,0a3.32,3.32,0,0,0,3-2.12c.63-1.42.76-3.56-1.27-6.44-4-5.6-16.7-7.09-23.42-11.68a2.31,2.31,0,0,0-1.31-.41H486.44C485.26,1744.53,484.25,1745.71,484.06,1747.32Z" transform="translate(-57.66 -333.92)"/><path class="cls-16" d="M504.4,1752.93h0a1,1,0,0,1-.25-1.18c.89-2,3.68-6.8,9.36-5.8.33,0,.55.49.5.94h0c0,.44-.35.72-.66.67-5.09-.87-7.47,3.37-8.19,5C505,1753,504.68,1753.09,504.4,1752.93Z" transform="translate(-57.66 -333.92)"/><path class="cls-16" d="M509.13,1754.79h0a1,1,0,0,1-.26-1.18c.89-2,3.69-6.79,9.36-5.8a.82.82,0,0,1,.5.94v0c-.06.43-.35.72-.67.66-5.09-.87-7.47,3.38-8.19,5C509.72,1754.82,509.4,1755,509.13,1754.79Z" transform="translate(-57.66 -333.92)"/><path class="cls-16" d="M513.52,1756.53h0a1,1,0,0,1-.26-1.18c.89-2,3.69-6.8,9.37-5.8.32,0,.55.49.49.94h0c-.06.44-.35.72-.67.67-5.09-.87-7.46,3.37-8.19,5A.51.51,0,0,1,513.52,1756.53Z" transform="translate(-57.66 -333.92)"/><rect class="cls-16" x="687.33" y="1763.28" width="45.9" height="4.62" rx="2.25" transform="translate(1363.99 3196.82) rotate(179.96)"/><path class="cls-15" d="M731.12,1749.23l1.53,12.85c.19,1.58-.7,3-1.86,3l-40.45,0a3,3,0,0,1-2.64-1.89c-.57-1.26-.68-3.17,1.13-5.73,3.51-5,14.85-6.3,20.83-10.39a2.1,2.1,0,0,1,1.17-.36H729C730.05,1746.75,731,1747.8,731.12,1749.23Z" transform="translate(-57.66 -333.92)"/><rect class="cls-16" x="782.7" y="1763.28" width="45.9" height="4.62" rx="2.25" transform="translate(1554.73 3196.76) rotate(179.96)"/><path class="cls-15" d="M826.49,1749.23l1.53,12.85c.19,1.58-.7,3-1.86,3l-40.45,0a3,3,0,0,1-2.64-1.89c-.57-1.26-.68-3.17,1.13-5.73,3.51-5,14.85-6.3,20.83-10.39a2.09,2.09,0,0,1,1.16-.36h18.18C825.42,1746.75,826.32,1747.8,826.49,1749.23Z" transform="translate(-57.66 -333.92)"/><path class="cls-16" d="M1536,1768l46.41,0a2.6,2.6,0,0,0,2.6-2.6h0a2.6,2.6,0,0,0-2.6-2.6l-46.42,0a2.6,2.6,0,0,0-2.59,2.6h0A2.59,2.59,0,0,0,1536,1768Z" transform="translate(-57.66 -333.92)"/><path class="cls-15" d="M1582.61,1747l1.72,14.44c.21,1.78-.78,3.4-2.09,3.4l-45.48,0a3.32,3.32,0,0,1-3-2.12c-.64-1.43-.76-3.57,1.27-6.44,4-5.6,16.7-7.09,23.42-11.69a2.35,2.35,0,0,1,1.31-.4l20.44,0C1581.41,1744.15,1582.42,1745.33,1582.61,1747Z" transform="translate(-57.66 -333.92)"/><path class="cls-16" d="M1562.27,1752.55h0a1,1,0,0,0,.25-1.17c-.89-2-3.68-6.8-9.36-5.81-.33.06-.55.5-.5,1h0c0,.44.34.72.66.67,5.09-.88,7.47,3.37,8.19,5C1561.68,1752.58,1562,1752.72,1562.27,1752.55Z" transform="translate(-57.66 -333.92)"/><path class="cls-16" d="M1557.54,1754.41h0a1,1,0,0,0,.26-1.17c-.89-2-3.69-6.8-9.36-5.8-.33,0-.56.49-.5.94h0c.06.44.35.72.67.67,5.09-.87,7.46,3.37,8.19,5C1557,1754.44,1557.27,1754.58,1557.54,1754.41Z" transform="translate(-57.66 -333.92)"/><path class="cls-16" d="M1553.15,1756.15h0a1,1,0,0,0,.26-1.17c-.89-2-3.69-6.8-9.37-5.81a.83.83,0,0,0-.49.95h0c.06.43.35.72.67.67,5.09-.88,7.46,3.37,8.19,5C1552.56,1756.18,1552.88,1756.32,1553.15,1756.15Z" transform="translate(-57.66 -333.92)"/><path class="cls-25" d="M1699,1768l46.42,0a2.6,2.6,0,0,0,2.59-2.6h0a2.59,2.59,0,0,0-2.6-2.6l-46.41,0a2.6,2.6,0,0,0-2.6,2.6h0A2.61,2.61,0,0,0,1699,1768Z" transform="translate(-57.66 -333.92)"/><path class="cls-25" d="M1745.65,1747l1.72,14.44c.21,1.78-.79,3.4-2.1,3.4l-45.47,0a3.32,3.32,0,0,1-3-2.12c-.64-1.43-.77-3.57,1.26-6.44,4-5.6,16.71-7.09,23.42-11.69a2.38,2.38,0,0,1,1.32-.4l20.43,0C1744.45,1744.15,1745.46,1745.33,1745.65,1747Z" transform="translate(-57.66 -333.92)"/><path class="cls-25" d="M1725.3,1752.55h0a1,1,0,0,0,.26-1.17c-.9-2-3.69-6.8-9.37-5.81-.33.06-.55.5-.49,1h0c0,.44.35.72.67.67,5.09-.88,7.46,3.37,8.19,5C1724.71,1752.58,1725,1752.72,1725.3,1752.55Z" transform="translate(-57.66 -333.92)"/><path class="cls-25" d="M1720.58,1754.41h0a1,1,0,0,0,.26-1.17c-.9-2-3.69-6.8-9.37-5.8-.33,0-.55.49-.49.94h0c0,.44.35.72.67.67,5.08-.87,7.46,3.37,8.18,5C1720,1754.44,1720.31,1754.58,1720.58,1754.41Z" transform="translate(-57.66 -333.92)"/><path class="cls-25" d="M1716.19,1756.15h0a1,1,0,0,0,.25-1.17c-.89-2-3.68-6.8-9.36-5.81-.33.06-.55.5-.5.95h0c.05.43.35.72.66.67,5.09-.88,7.47,3.37,8.19,5C1715.6,1756.18,1715.91,1756.32,1716.19,1756.15Z" transform="translate(-57.66 -333.92)"/><path class="cls-25" d="M1864.47,1768l-46.42,0a2.6,2.6,0,0,1-2.59-2.6h0a2.59,2.59,0,0,1,2.6-2.6l46.41,0a2.61,2.61,0,0,1,2.6,2.6h0A2.61,2.61,0,0,1,1864.47,1768Z" transform="translate(-57.66 -333.92)"/><path class="cls-25" d="M1817.83,1747l-1.72,14.44c-.21,1.78.79,3.4,2.1,3.4l45.47,0a3.32,3.32,0,0,0,3-2.12c.64-1.43.77-3.57-1.27-6.44-4-5.6-16.7-7.09-23.42-11.69a2.33,2.33,0,0,0-1.31-.4l-20.43,0C1819,1744.15,1818,1745.33,1817.83,1747Z" transform="translate(-57.66 -333.92)"/><path class="cls-25" d="M1838.18,1752.55h0a1,1,0,0,1-.26-1.17c.89-2,3.69-6.8,9.37-5.81.33.06.55.5.49,1h0c-.06.44-.35.72-.67.67-5.09-.88-7.46,3.37-8.19,5C1838.77,1752.58,1838.45,1752.72,1838.18,1752.55Z" transform="translate(-57.66 -333.92)"/><path class="cls-25" d="M1842.9,1754.41h0a1,1,0,0,1-.26-1.17c.9-2,3.69-6.8,9.37-5.8.33,0,.55.49.49.94h0c0,.44-.35.72-.67.67-5.08-.87-7.46,3.37-8.18,5C1843.49,1754.44,1843.17,1754.58,1842.9,1754.41Z" transform="translate(-57.66 -333.92)"/><path class="cls-25" d="M1847.29,1756.15h0a1,1,0,0,1-.26-1.17c.9-2,3.69-6.8,9.37-5.81.33.06.55.5.49.95h0c-.05.43-.35.72-.67.67-5.08-.88-7.46,3.37-8.18,5C1847.88,1756.18,1847.57,1756.32,1847.29,1756.15Z" transform="translate(-57.66 -333.92)"/><path class="cls-16" d="M1468.45,1768l46.42,0a2.6,2.6,0,0,0,2.59-2.6h0a2.59,2.59,0,0,0-2.6-2.6l-46.41,0a2.61,2.61,0,0,0-2.6,2.6h0A2.61,2.61,0,0,0,1468.45,1768Z" transform="translate(-57.66 -333.92)"/><path class="cls-15" d="M1515.09,1747l1.72,14.44c.21,1.78-.79,3.4-2.1,3.4l-45.47,0a3.32,3.32,0,0,1-3-2.12c-.64-1.43-.77-3.57,1.27-6.44,4-5.6,16.7-7.09,23.42-11.69a2.33,2.33,0,0,1,1.31-.4l20.43,0C1513.89,1744.15,1514.9,1745.33,1515.09,1747Z" transform="translate(-57.66 -333.92)"/><path class="cls-16" d="M1494.74,1752.55h0a1,1,0,0,0,.26-1.17c-.9-2-3.69-6.8-9.37-5.81-.33.06-.55.5-.49,1h0c0,.44.35.72.67.67,5.09-.88,7.46,3.37,8.19,5C1494.15,1752.58,1494.47,1752.72,1494.74,1752.55Z" transform="translate(-57.66 -333.92)"/><path class="cls-16" d="M1490,1754.41h0a1,1,0,0,0,.26-1.17c-.9-2-3.69-6.8-9.37-5.8-.33,0-.55.49-.49.94h0c0,.44.35.72.67.67,5.09-.87,7.46,3.37,8.18,5C1489.43,1754.44,1489.75,1754.58,1490,1754.41Z" transform="translate(-57.66 -333.92)"/><path class="cls-16" d="M1485.63,1756.15h0a1,1,0,0,0,.25-1.17c-.89-2-3.68-6.8-9.36-5.81-.33.06-.55.5-.5.95h0c0,.43.35.72.66.67,5.09-.88,7.47,3.37,8.19,5C1485,1756.18,1485.35,1756.32,1485.63,1756.15Z" transform="translate(-57.66 -333.92)"/></g></g></svg>