<svg id="Ñëîé_1" data-name="Ñëîé 1" xmlns="http://www.w3.org/2000/svg" xmlns:xlink="http://www.w3.org/1999/xlink" viewBox="0 0 2136.43 1182.17"><defs><style>.cls-1{fill:#fff;}.cls-2{fill:#1f4d93;}.cls-3{fill:#b1c9f6;}.cls-4{clip-path:url(#clip-path);}.cls-5{fill:#ebeefc;}.cls-6{fill:#ff9792;}.cls-7{fill:#ff7d78;}.cls-8{fill:#f24b46;}.cls-9{fill:#c0d3f8;}.cls-10{clip-path:url(#clip-path-2);}.cls-11{fill:#27c15e;}.cls-12{fill:#242e6c;}.cls-13{fill:#00993d;}.cls-14{fill:#1b2251;}.cls-15{fill:#f9795a;}.cls-16{fill:url(#Áåçûìÿííûé_ãðàäèåíò_2);}.cls-17{fill:#6615b2;}.cls-18{fill:url(#Áåçûìÿííûé_ãðàäèåíò_35);}.cls-19{fill:#dfdcf7;}.cls-20{fill:#003585;}.cls-21{fill:#eb3668;}.cls-22{fill:url(#Áåçûìÿííûé_ãðàäèåíò_2-2);}.cls-23{fill:#fd8857;}</style><clipPath id="clip-path" transform="translate(-1301.18 -602.76)"><rect class="cls-1" x="2270.51" y="830.72" width="187.58" height="187.58"/></clipPath><clipPath id="clip-path-2" transform="translate(-1301.18 -602.76)"><rect class="cls-1" x="2270.51" y="1363.61" width="187.58" height="187.58"/></clipPath><linearGradient id="Áåçûìÿííûé_ãðàäèåíò_2" x1="854.05" y1="1059.58" x2="399.91" y2="797.38" gradientUnits="userSpaceOnUse"><stop offset="0" stop-color="#f9795a"/><stop offset="1" stop-color="#eb3668"/></linearGradient><linearGradient id="Áåçûìÿííûé_ãðàäèåíò_35" x1="2009.59" y1="1531.25" x2="1575.43" y2="1531.25" gradientTransform="translate(3670.69 3062.49) rotate(-180)" gradientUnits="userSpaceOnUse"><stop offset="0" stop-color="#f9795a"/><stop offset="0.12" stop-color="#f97e60"/><stop offset="0.29" stop-color="#fa8c72"/><stop offset="0.48" stop-color="#fba48f"/><stop offset="0.69" stop-color="#fcc5b7"/><stop offset="0.92" stop-color="#feeeea"/><stop offset="1" stop-color="#fff"/></linearGradient><linearGradient id="Áåçûìÿííûé_ãðàäèåíò_2-2" x1="3431.32" y1="1105.95" x2="3300.6" y2="1105.95" xlink:href="#Áåçûìÿííûé_ãðàäèåíò_2"/></defs><path class="cls-2" d="M2784.39,793.17s158.74-160.44,205.7-125.69S2784.39,793.17,2784.39,793.17Z" transform="translate(-1301.18 -602.76)"/><path class="cls-2" d="M2773.49,823.44s300-145.4,374.13-75.6-81.54,65.64-139.33,59.34S2773.49,823.44,2773.49,823.44Z" transform="translate(-1301.18 -602.76)"/><path class="cls-2" d="M2759.7,790.5s1.2-7.7,2.81-19c3.13-22,7.84-57.53,8.3-76,.68-27.92,22.49-48.39,48-20.76s-49.84,107.76-49.84,107.76Z" transform="translate(-1301.18 -602.76)"/><path class="cls-2" d="M1972.13,1066.75c13.9-45.11,90.25-28.24,90.25-28.24s49.44,81.48,64.55,83.9-28.67-77.92-28.67-77.92c29.51-1.83,103.21,36.79,103.21,36.79s-7.93,92.8,7.31,91.42,2.83-82.53,2.83-82.53c28.17,9.52,53.59,43.63,53.59,43.63,31.35,55.21-41.17,92.61-41.17,92.61s-2.05,32.22,16.6,69.9h0a109.6,109.6,0,0,1,8.43,18.75l-7.76-.27c-.56-2.1-1.19-4.14-1.9-6.09,0,0,0,0,0,0l0-.08c-.49-1.22-1.2-2.95-2.08-5.06h0c-2.21-4.72-3.69-8.21-4.62-10.72v0c-6.6-14.81-16.18-34.14-22.87-38.35a15.22,15.22,0,0,0,1.79-3.51l-1.79,3.51c-14.25,28-80.82,30.46-117.56,21.6s-20.25-18.74.25-35,62.09-10.35,74.65-16.57-5.23-13.48-30-12.43-37.91,25.29-77.88,27.72-67.76-73.56-67.76-73.56c27.22,9.49,77.07-4,79.29-13.42s-70.85-11-82.14-14.22S1958.24,1111.87,1972.13,1066.75Z" transform="translate(-1301.18 -602.76)"/><path class="cls-2" d="M3137.12,1123.44c-14.06-36.38-76-18.06-76-18.06s-36,70-48.35,72.89,19.12-65.88,19.12-65.88c-24.43.19-82.94,36.29-82.94,36.29s11.91,76-.73,75.78-7.11-67.86-7.11-67.86c-22.67,9.47-41.65,39.06-41.65,39.06-22.64,47.32,39.29,73.95,39.29,73.95s3.56,26.44-9.63,58.58h0a90.61,90.61,0,0,0-5.87,15.94l6.38-.66c.35-1.77.75-3.48,1.22-5.14a0,0,0,0,1,0,0,.25.25,0,0,1,0-.07c.33-1,.81-2.5,1.42-4.29h0c1.55-4,2.57-7,3.19-9.1v0c4.58-12.59,11.36-29.08,16.63-32.94a12.64,12.64,0,0,1-1.68-2.78c.54.88,1.09,1.81,1.68,2.78,13.37,22.26,68.38,20.43,98.14,11s15.61-16.62-2.23-28.83-51.77-4.94-62.49-9.34,3.54-11.41,24-12,32.71,18.66,65.8,18.34,51.59-64.55,51.59-64.55c-21.88,9.39-63.75,1.16-66.13-6.47s57.77-13.15,66.88-16.47S3151.18,1159.82,3137.12,1123.44Z" transform="translate(-1301.18 -602.76)"/><path class="cls-2" d="M2014.58,640c36-70,156.37-20,156.37-20s57.31,148.18,81.41,156.57-24.26-136.26-24.26-136.26c49,5.62,158.62,90.55,158.62,90.55s-40.15,150-14.73,152.19,28.78-134.62,28.78-134.62c43.44,23.85,75.19,87.27,75.19,87.27,35.3,99.78-94.65,140-94.65,140s-12.8,52.27,6.8,119.57h0s4.95,12.71,8.35,33.24l-12.65-2.7c-.31-3.62-.75-7.14-1.34-10.56a.07.07,0,0,0,0-.06.77.77,0,0,1,0-.15c-.45-2.14-1.1-5.19-1.93-8.91v0s0,0,0,0c-2.25-8.4-3.67-14.55-4.45-18.94a.06.06,0,0,1,0,0c-6.5-26.24-16.57-60.76-26.32-69.64a25.17,25.17,0,0,0,4-5.22l-4,5.22c-31.59,41.79-141.55,26.37-199.26,1.09s-27.75-36.68,10.65-57.36,104.93,1.17,127.36-5.37-4.65-23.64-45.55-29.15-69.61,30.42-135.92,22.72-89.69-140.54-89.69-140.54c41.9,23.52,127.65,16,134.05,1.16s-113.07-38.74-130.65-47.35S1978.58,710,2014.58,640Z" transform="translate(-1301.18 -602.76)"/><rect class="cls-3" x="896.37" y="139.81" width="770.82" height="1042.37"/><rect class="cls-2" x="920.44" y="160.1" width="716.03" height="996.03"/><rect class="cls-1" x="969.32" y="227.96" width="187.58" height="187.58"/><g class="cls-4"><polygon class="cls-5" points="1125.4 596.94 977.09 596.94 1083.41 358.54 1120.2 440.95 1133.63 521.1 1125.4 596.94"/><path class="cls-1" d="M2310.77,967.46l23.76-6.16,23.07-8.18s13.39,6.4,22.94,8.18c10.39,1.93,45.08,59.88,45.08,62.3s-27.13,174.93-27.13,174.93H2267.55Z" transform="translate(-1301.18 -602.76)"/><path class="cls-6" d="M2375.78,970.7c-11.75,2-28.88-.82-41.27-9.41,6-13.44,8.57-24.1,9.57-31,.05-.37.1-.72.14-1.07a31.67,31.67,0,0,0,.31-7.14l30.25.7s8.18,4,8.12,6.59c0,1.4-.05,2.73-.06,4,0,3.48,0,6.52.17,9.13.38,8.5,1.58,18.8,1.58,18.8S2387.65,968.66,2375.78,970.7Z" transform="translate(-1301.18 -602.76)"/><path class="cls-7" d="M2383,942.5c-23,3.9-36-8.94-38.93-12.22-.42-.47-.63-.75-.63-.75l.77-.32c8.61-3.25,28.24-1.52,39,2.7C2383.16,935.39,2382.89,939.89,2383,942.5Z" transform="translate(-1301.18 -602.76)"/><path class="cls-6" d="M2335.6,919.9c7.8,21,35.7,15.47,47.58,12,3.34-1,5.41-1.78,5.41-1.78,3.67-1.69,4.77-8.11,4.39-16.22-.74-16-7.22-38.64-10.89-44.07-5.52-8.18-14.7-16.47-41.73-4.67S2325.61,893,2335.6,919.9Z" transform="translate(-1301.18 -602.76)"/><path class="cls-8" d="M2379.54,851.21c-9.58-7.06-18.12-8.61-24.35-8.69-18.41-.25-32.7,9.06-32.78,9.12-21.3,14.12-24.27,32.8-7.3,58.17,18,26.82,28.9,20.92,28.9,20.92s-2.1-.67-3.43-9.77c-.07-.52-.13-1-.17-1.33a6.16,6.16,0,0,0-2.78-4.62c-3.3-2.06-6-9.55-4-12.11,2.45-3.1,7.06-.65,8.77,1.55a3.59,3.59,0,0,0,5.26.24c6.39-5.78.16-14,6.06-20.78s41.26-3.71,43.57-23.59A63.07,63.07,0,0,1,2379.54,851.21Z" transform="translate(-1301.18 -602.76)"/><path class="cls-3" d="M2384.59,961.3s37.15,76.65,42,135.83,0,102.58,0,102.58,24.15-57.76,26.44-126.2c1-30.42-3.86-85.49-14.19-95.23C2433.8,973.52,2418.67,969,2384.59,961.3Z" transform="translate(-1301.18 -602.76)"/><path class="cls-3" d="M2343.22,1062.66c-.12,8.75-.46,17.9-1.08,27.37a469.35,469.35,0,0,1-19.69,108.5H2200.87s15.07-36.62,33.27-76.43c3.18-7,6.47-14,9.78-21,13.45-28.34,27.43-55.32,37.65-68.95,27.12-36.17,53-70.83,53-70.83S2344,1002.78,2343.22,1062.66Z" transform="translate(-1301.18 -602.76)"/><path class="cls-9" d="M2309.85,1117.56s-25,9.91-75.71,4.54c3.18-7,6.47-14,9.78-21Z" transform="translate(-1301.18 -602.76)"/><path class="cls-9" d="M2343.22,1062.66c-.12,8.75-.46,17.9-1.08,27.37-16.36-.89-74.87-4.11-74.59-4.94s5.41-23.25,5.41-23.25,49.19,12,70.17,0Z" transform="translate(-1301.18 -602.76)"/><path class="cls-6" d="M2320.32,1089s17.44-10.35,25.51-9.86,21,3.08,22.93,9.86-2.91,3.48-13.73,5.58c-6.38,1.25-10.28,10.41-18.57,11.21-3.23.32-16.14-2.26-16.14-2.26Z" transform="translate(-1301.18 -602.76)"/><path class="cls-3" d="M2334.53,961.3s-44.63,5.27-56.26,16.25c-19.66,18.57-71.37,88.79-66.26,119.58,3.39,20.43,97.84,20.43,97.84,20.43s11.66-7.55,16-14.39c8.72-13.88,5.7-24.07,5.7-24.07l-58.42-19.85s28.5-27.62,50.46-29.06C2339.61,1029.14,2334.53,961.3,2334.53,961.3Z" transform="translate(-1301.18 -602.76)"/></g><rect class="cls-1" x="1206.53" y="343.17" width="235.05" height="4.72"/><rect class="cls-1" x="1206.53" y="365.18" width="235.05" height="4.72"/><rect class="cls-1" x="1206.53" y="387.45" width="235.05" height="4.72"/><rect class="cls-1" x="1206.53" y="213.93" width="71.92" height="71.92"/><rect class="cls-1" x="1350.43" y="270.12" width="91.15" height="8.3"/><rect class="cls-1" x="1330.58" y="289.55" width="111.01" height="8.3"/><rect class="cls-1" x="969.32" y="760.85" width="187.58" height="187.58"/><g class="cls-10"><path class="cls-11" d="M2308.31,1500.35l23.76-6.16,23.07-8.18s13.4,6.4,22.94,8.18c10.39,1.94,45.08,59.88,45.08,62.3s1,176.11,1,176.11l-159-1.18Z" transform="translate(-1301.18 -602.76)"/><path class="cls-6" d="M2373.32,1503.59c-11.75,2-28.88-.82-41.27-9.41,6-13.43,8.58-24.09,9.57-31,.05-.37.1-.72.14-1.07a31.67,31.67,0,0,0,.31-7.14l30.25.7s8.18,4,8.12,6.59c0,1.4-.05,2.73-.05,4,0,3.48,0,6.52.16,9.13.38,8.5,1.58,18.8,1.58,18.8S2385.19,1501.55,2373.32,1503.59Z" transform="translate(-1301.18 -602.76)"/><path class="cls-7" d="M2380.55,1475.39c-23,3.9-36-8.94-38.93-12.22-.42-.47-.63-.74-.63-.74.25-.12.5-.22.77-.33,8.61-3.25,28.24-1.51,39,2.7C2380.7,1468.28,2380.43,1472.78,2380.55,1475.39Z" transform="translate(-1301.18 -602.76)"/><path class="cls-6" d="M2333.14,1452.8c7.8,21,35.7,15.46,47.58,12,3.34-1,5.41-1.77,5.41-1.77,3.67-1.7,4.77-8.12,4.39-16.22-.73-16-7.22-38.65-10.89-44.08-5.52-8.18-14.69-16.47-41.72-4.67S2323.15,1425.86,2333.14,1452.8Z" transform="translate(-1301.18 -602.76)"/><path class="cls-12" d="M2377.08,1384.1c-9.58-7.06-18.12-8.61-24.34-8.69-18.42-.25-32.71,9.07-32.79,9.12-21.3,14.12-24.27,32.8-7.29,58.17,18,26.82,28.89,20.92,28.89,20.92s-2.1-.67-3.42-9.77c-.08-.52-.13-.95-.17-1.32a6.22,6.22,0,0,0-2.78-4.63c-3.31-2.06-6-9.55-4-12.11,2.45-3.1,7.06-.65,8.78,1.55a3.58,3.58,0,0,0,5.25.24c6.39-5.77.16-14,6.06-20.78s41.26-3.7,43.57-23.59A63.07,63.07,0,0,1,2377.08,1384.1Z" transform="translate(-1301.18 -602.76)"/><path class="cls-11" d="M2382.13,1494.19s37.15,76.65,42,135.83,0,102.58,0,102.58,24.15-57.76,26.44-126.2c1-30.41-3.85-85.49-14.19-95.23C2431.34,1506.41,2416.21,1501.87,2382.13,1494.19Z" transform="translate(-1301.18 -602.76)"/><path class="cls-11" d="M2332.07,1494.19h0s-44.63,5.28-56.26,16.26c-19.66,18.56-71.37,88.78-66.26,119.57,1.14,6.83,27.61,27.69,42.16,30.72,3.69,29-5.44,71.86-5.44,71.86l73.72-1.18a469.35,469.35,0,0,0,19.69-108.5c.62-9.47,1-18.62,1.08-27.37C2341.57,1535.68,2332.07,1494.19,2332.07,1494.19Z" transform="translate(-1301.18 -602.76)"/><path class="cls-13" d="M2337.89,1486.28s18.68,15.27,29.74,17.94c0,0-10.27,5.43-42.55-9.06C2325.08,1495.16,2329.75,1487.3,2337.89,1486.28Z" transform="translate(-1301.18 -602.76)"/><path class="cls-13" d="M2381.19,1484.71s2.12,6.36,5.39,10.49c0,0-2.88,10.17-18.95,9C2367.63,1504.22,2381.82,1494,2381.19,1484.71Z" transform="translate(-1301.18 -602.76)"/><path class="cls-13" d="M2355,1498.25l22.16-2.7s-.7,13-7.37,18.18C2367.31,1515.62,2354.66,1500.56,2355,1498.25Z" transform="translate(-1301.18 -602.76)"/><path class="cls-13" d="M2364.82,1506.18s5.09,92.73,2.69,133.74c-1.33,22.67-4.62,55.33-4.09,58.49s15.57,17.92,15.57,17.92,14.81-13.79,15.16-19.76,4.57-92.74-21.71-191.35C2371.54,1501.84,2364.82,1506.18,2364.82,1506.18Z" transform="translate(-1301.18 -602.76)"/><path class="cls-13" d="M2335.91,1484.71s-5.69.39-15.7,12c0,0,16.16,13.88,30.91,17.39,0,0-.61-10.75,3.83-15.83Z" transform="translate(-1301.18 -602.76)"/><path class="cls-13" d="M2381.19,1484.71l-7.76,11.5s7.9,5.93,10.54,13c0,0,5.42-8.85,5-13.51C2388.92,1495.74,2385.26,1486.12,2381.19,1484.71Z" transform="translate(-1301.18 -602.76)"/></g><rect class="cls-1" x="1206.53" y="894.76" width="248.5" height="4.72"/><rect class="cls-1" x="1206.53" y="916.77" width="248.5" height="4.72"/><rect class="cls-1" x="1206.53" y="939.04" width="248.5" height="4.72"/><rect class="cls-1" x="1206.53" y="765.52" width="71.92" height="71.92"/><rect class="cls-1" x="1358.66" y="821.71" width="96.37" height="8.3"/><rect class="cls-1" x="1337.67" y="841.13" width="117.36" height="8.3"/><rect class="cls-1" x="969.32" y="489.94" width="187.58" height="187.58"/><path class="cls-8" d="M2383.78,1108.74c-11.5-3.2-27.37-.53-30-.32-31.43,2.5-40.2,50.86-38.38,64.53,3.37,25.21-8.93,31.83-24,51.35-16.46,21.27-18.45,41-13.11,56h79.79c17.11-15,40.48-35.68,55.15-48.45a24.85,24.85,0,0,0,5.55-2.87C2450.84,1206.85,2411.64,1116.46,2383.78,1108.74Z" transform="translate(-1301.18 -602.76)"/><path class="cls-6" d="M2386.27,1223.58c.14.05-13.05,8-23.49,5.84-9.82-2-19.8-15.3-19.67-15.33,4-1.07,7.74-5.6,6.13-29.74l1.87.25,31.46,4.19s-.09,9.82.47,19C2383.51,1215.56,2384.44,1222.87,2386.27,1223.58Z" transform="translate(-1301.18 -602.76)"/><path class="cls-7" d="M2382.57,1188.79s-.09,9.82.47,19c-17.42.6-27.61-14.68-31.93-23.23Z" transform="translate(-1301.18 -602.76)"/><path class="cls-6" d="M2388.93,1197.15s-41.1,3.27-42.74-22.35-8.06-42.45,18.1-45.63,31.9,6.28,34.53,14.69S2399.57,1195.63,2388.93,1197.15Z" transform="translate(-1301.18 -602.76)"/><path class="cls-8" d="M2394.42,1130.58s-20.79,27.55-37.8,33.09-24.79,1.38-24.79,1.38a69.42,69.42,0,0,0,11.6-25.79,12.54,12.54,0,0,1,8.52-9.39C2364.14,1126.11,2387.57,1120.53,2394.42,1130.58Z" transform="translate(-1301.18 -602.76)"/><path class="cls-8" d="M2378,1132.06s10.34,6.42,14.36,12c3.88,5.35,7.72,19.34,6.86,25.41,0,0,7.72-28.79-2.54-39.75C2385.81,1118.08,2378,1132.06,2378,1132.06Z" transform="translate(-1301.18 -602.76)"/><path class="cls-9" d="M2423.45,1236.12a15.57,15.57,0,0,0-4.68-7.16c-10.79-10.06-35-14.17-35-14.17h0a1.46,1.46,0,0,1-.06.26v0c-.34,1.29-2.19,6.49-10.37,6.49-5.52,0-13.93-2.38-26.71-9.93a2,2,0,0,1-.19-.12h0s-33.6,2.07-45.22,18.29c-6.31,8.8-15,28.65-22.26,50.48h156.59Z" transform="translate(-1301.18 -602.76)"/><rect class="cls-1" x="1206.53" y="621.96" width="243.91" height="4.72"/><rect class="cls-1" x="1206.53" y="643.97" width="243.91" height="4.72"/><rect class="cls-1" x="1206.53" y="666.24" width="243.91" height="4.72"/><rect class="cls-1" x="1206.53" y="492.72" width="71.92" height="71.92"/><rect class="cls-1" x="1339.9" y="548.91" width="101.68" height="8.3"/><rect class="cls-1" x="1317.75" y="568.33" width="123.83" height="8.3"/><polygon class="cls-14" points="1220.13 522.49 1242.49 553.32 1269.13 504.05 1238.22 532.15 1220.13 522.49"/><rect class="cls-1" x="1096.72" y="1046.51" width="246.81" height="4.14"/><rect class="cls-1" x="1096.72" y="1066.29" width="246.81" height="4.14"/><rect class="cls-1" x="1096.72" y="1090.21" width="246.81" height="4.14"/><path class="cls-1" d="M2295.22,1658.1c3.32-4.67,6.79-12.88,4.16-18.66-2.41-5.3-7.18-2.85-10.43.23-4.83,4.58-7.58,10.88-9.64,17.1a109.75,109.75,0,0,0-5.39,23.45c-.66,6.41-1.1,16.29,3,21.76,3.5,4.64,9.14.83,13-1.35,12.26-6.88,22.49-17.88,25.33-32,.36-1.81-1.88-3.47-3.31-1.92a17,17,0,0,0-4.82,11c-.06,2.32.15,6,3,6.67,3.29.79,5.85-3.78,7.27-6a37.72,37.72,0,0,0,5.44-14.44l-3.81-1c-.55,3.74.12,10.4,5.67,9.25,5.25-1.1,5.69-10.12,5.85-14.16.09-2.2-3.44-2.74-3.88-.53a21.2,21.2,0,0,0,.46,10.81,36.12,36.12,0,0,0,2.32,5.06,27.7,27.7,0,0,1,2.13,4.21q1.86,4.55-3.19,3.86c-.39,1-.79,1.94-1.18,2.9,9.31-3.66,19.43-8.69,19.94-20,.12-2.54-3.83-2.54-4,0-.42,9.27-9.59,13.25-17,16.18a2,2,0,0,0-1.18,2.91c2.16,4.27,8.11,3.83,10.12-.41,1.34-2.81.7-5.88-.55-8.59-2.52-5.45-5.32-9.56-4.07-15.89l-3.88-.52a26.87,26.87,0,0,1-.87,6.3,11.21,11.21,0,0,1-.73,2.16c-.63,2.46-1.34,1.63-2.16-2.5.36-2.47-3.39-3.58-3.81-1a34.74,34.74,0,0,1-5.05,13.5c-1.22,1.87-3,5.61-2.85,1.28a12.76,12.76,0,0,1,3.67-8.24l-3.3-1.93c-1.87,9.24-7,17.06-14.18,23.12-3.4,2.89-7.82,6.49-12.13,8-1.67.56-4.37.71-5.84-.72-.58-.57-.8-2.79-1-3.58a41.3,41.3,0,0,1-.82-9.54c.23-10.08,3-20.65,6.61-30,1.71-4.52,4-9,7.57-12.35,4.5-4.24,4.52,2.5,3.86,5.58a21.8,21.8,0,0,1-3.81,8.07c-1.47,2.08,1.95,4.05,3.42,2Z" transform="translate(-1301.18 -602.76)"/><path class="cls-6" d="M2741.21,1771.15c-.71,9.68-14.36,9.78-29.86,8s-11.38,2.12-33.07,2.42-29.18-6.87-30.23-10c-.94-2.75,9.51-5.06,20.69-7.79,1.41-.33,2.82-.69,4.23-1,12.61-3.2,21-12.63,31.74-20.87,10.22-7.81,23.39-36.05,23.39-36.05l29.64-1.34s-12.48,25.32-17.17,36.23c-2.76,6.42-1.58,14.31-.38,20.36A37.84,37.84,0,0,1,2741.21,1771.15Z" transform="translate(-1301.18 -602.76)"/><path class="cls-14" d="M2711.35,1779.14c-15.5-1.8-11.38,2.12-33.07,2.42s-29.18-6.87-30.23-10c-.94-2.75,9.51-5.06,20.69-7.79l.14.21a60.75,60.75,0,0,0,31.83,5.7c14.57-1.46,29.43-7.54,39.48-8.63a37.84,37.84,0,0,1,1,10.07C2740.5,1780.83,2726.85,1780.93,2711.35,1779.14Z" transform="translate(-1301.18 -602.76)"/><path class="cls-6" d="M2945.93,1773.16c-.7,9.68-14.36,9.8-29.86,8s-11.37,2.14-33.07,2.46-29.18-6.84-30.24-9.94c-.94-2.75,9.51-5.07,20.69-7.81,1.4-.33,2.82-.69,4.23-1.05,12.6-3.22,20.94-12.66,31.71-20.91,10.21-7.81,0-54.07,0-54.07l32.6-3.18s-1.56,38.95-1.54,56.66c0,7,3.22,13.71,4.43,19.76A38.23,38.23,0,0,1,2945.93,1773.16Z" transform="translate(-1301.18 -602.76)"/><path class="cls-14" d="M2916.07,1781.17c-15.5-1.78-11.37,2.14-33.07,2.46s-29.18-6.84-30.24-9.94c-.94-2.75,9.51-5.07,20.69-7.81l.13.21a60.87,60.87,0,0,0,31.85,5.67c14.56-1.47,29.41-7.57,39.46-8.67a38.23,38.23,0,0,1,1,10.07C2945.23,1782.84,2931.57,1783,2916.07,1781.17Z" transform="translate(-1301.18 -602.76)"/><path class="cls-8" d="M2850.78,973.61c-5.61-23.09,2.53-33.84,9.87-39.56,3.48-8.5,7.45-14.62,11.51-16.93,7.41-4.21,16.29-4.67,22.5-4.3-1.6-1.66-4.74-2.26-4.74-2.26,3.85-.57,12.45,3.25,12.45,3.25,53.57-20.64,62,58.24,60.86,76.56s-1,39.91,26.9,54.35c53.18,27.55-17.67,131.36-17.67,131.36,1.35-14.81-67-93-102.63-116.36-8.67-12.78-11.76-35.34-12-37.12,1.5,17.89,4.56,27.93,7.3,33.58C2848.89,1041.23,2846.48,1005.32,2850.78,973.61Z" transform="translate(-1301.18 -602.76)"/><path class="cls-6" d="M2871.94,1060.89c-.17.08,17.22,9.11,30.3,5.53,12.3-3.36,20.34-19.31,20.17-19.35-5.21-1-6.71-8.19-6.6-39l-2.36.46-39.6,7.84s.9,12.47.92,24.21C2874.8,1050.48,2874.2,1059.83,2871.94,1060.89Z" transform="translate(-1301.18 -602.76)"/><path class="cls-7" d="M2873.85,1016.41s.9,12.47.92,24.21c22.17-.62,33.88-20.84,38.68-32Z" transform="translate(-1301.18 -602.76)"/><path class="cls-15" d="M2712.69,1721.52a9.72,9.72,0,0,0,8.81,12.66l15.47.73,16.37.5a13.15,13.15,0,0,0,10.6-4.84c13.07-16,53.3-69.46,77.7-147.1.68-2.18,1.41-4.38,2.17-6.61,16.12-47,49.53-106,67.13-159.36,2.8-8.5,5.32-16.5,7.58-24.08.72-2.43,1.42-4.81,2.09-7.16,13-45.07,16.73-74.67,20.2-106.29l-127.13,1S2786.92,1489,2712.69,1721.52Z" transform="translate(-1301.18 -602.76)"/><path class="cls-1" d="M2831.48,1207.94c.32,60.49-8.88,86.44-8.88,86.44s54.43,27.66,119.12,7.3c.77-.24,46.29-13.13,46.29-13.13-1.09-2.45-10.08-42.92-11.14-45.17-13.65-29.33-17.38-41.64-19-50.66-3-16.83-3.07-34.25-1.57-50.68a406.78,406.78,0,0,1,15.69-79.59c-17.63-4-34.14-11.06-52.48-17.94-4.22,5.26-17.12,10.75-28.31,10.5-12.89-.28-17.07-5.8-16.4-11.82-13.73,7.64-24.69,14.86-24.69,14.86-11.67,20.27-35.34,40-37.05,71.06C2812.64,1136.75,2831.47,1206.24,2831.48,1207.94Z" transform="translate(-1301.18 -602.76)"/><path class="cls-1" d="M2940.81,1214.68c5.55,7.87,16.21,55.67,42.71,61.68-13.65-34.07-24-49-25.65-59.48-3-19.56-3.07-39.79-1.57-58.88-8.87-15.55-15.49-26.21-15.49-26.21-.7-2.52-14.1-44-18.4-6.91S2934.6,1205.88,2940.81,1214.68Z" transform="translate(-1301.18 -602.76)"/><path class="cls-6" d="M2866.44,1027.53s52.44.87,52.48-31.8,6.83-54.55-26.65-56.48-40,10.52-42.67,21.42S2852.8,1026.47,2866.44,1027.53Z" transform="translate(-1301.18 -602.76)"/><path class="cls-8" d="M2868.38,938.45s14.36,38.32,36.4,44,31.59-.23,31.59-.23-16.9-13.43-20.41-36.87C2916,945.33,2879.21,920.2,2868.38,938.45Z" transform="translate(-1301.18 -602.76)"/><path class="cls-8" d="M2871.94,941.56s-10.72,8.55-13.33,16.87-3.79,25.44-8.79,24.86c0,0-10.81-26,1.34-40.78C2864.06,926.88,2871.94,941.56,2871.94,941.56Z" transform="translate(-1301.18 -602.76)"/><polygon class="cls-6" points="1482.74 647.16 1457.98 722.68 1472.1 728.34 1513.06 661.63 1482.74 647.16"/><path class="cls-9" d="M2850.71,1053.6s-29.21,11.59-37.66,29.66S2791.8,1222.52,2786.7,1235s-8.93,22.3-8.93,22.3,14.73,12.41,29.54,13.32S2850.71,1053.6,2850.71,1053.6Z" transform="translate(-1301.18 -602.76)"/><path class="cls-9" d="M2874.8,1043.19s-30.34,75-31.23,90.12-3.57,248.06-3.57,248.06,1.79,10.7-18.74,6.24-25.87-8.92-25.87-8.92S2815,1235,2809.66,1185.06s41.05-131.46,41.05-131.46Z" transform="translate(-1301.18 -602.76)"/><path class="cls-8" d="M2737,1734.91l17.78.54a10.26,10.26,0,0,0,8.24-3.72c12-14.47,53.62-68.64,78.65-148.26.68-2.18,1.41-4.38,2.17-6.61,16.12-47,49.53-106,67.13-159.36,2.8-8.5,5.32-16.5,7.58-24.08.72-2.43,1.42-4.81,2.09-7.16l-18.72-14.2s-56.2,91-73.6,176.66C2813.17,1623.12,2752.64,1712.64,2737,1734.91Z" transform="translate(-1301.18 -602.76)"/><path class="cls-15" d="M2899.94,1556.7c-.31,39.4,1.56,127.23,6.36,170.16a7.76,7.76,0,0,0,7.71,6.9h13.27c5.59,0,9.77,0,12.55-.09a5.1,5.1,0,0,0,4.92-4.12c13.19-67.12,22.63-122.88,29.54-171.07,5.78-40.33,10.92-74.9,14.88-104.67,4-30,6.74-55,7.73-76.23.15-3.33.27-6.58.33-9.73s.08-6.25.06-9.24l-109.84-10.7C2888.83,1420.88,2900.12,1532.49,2899.94,1556.7Z" transform="translate(-1301.18 -602.76)"/><path class="cls-8" d="M2927.28,1733.76c5,0,8.91,0,11.66-.07a6.19,6.19,0,0,0,6-5c13.1-66.74,22.49-122.23,29.37-170.21,5.78-40.33,10.92-74.9,14.88-104.67,4-30,6.74-55,7.73-76.23l-40.3,23.71s25.72,9.08,15.91,77.78S2940.94,1724,2927.28,1733.76Z" transform="translate(-1301.18 -602.76)"/><path class="cls-9" d="M2922.09,1376.91s7.74,27.95,34.51,24.38,64.83-19.63,64.83-19.63-11.44-36.15-25.66-83.63c-17.22-57.49-38.54-131.6-48.59-178.35-2.82-13.1-4.75-24-5.46-31.87l-22.21-43.09s-33.11,74.32-34.89,93S2922.09,1376.91,2922.09,1376.91Z" transform="translate(-1301.18 -602.76)"/><path class="cls-6" d="M2948.82,1135l-29.31-90.26c.08,0,37,11,55.6,20.38,0,0,11.62,15,18.8,49.52,0,0,7.59,82.94-9.36,113.27,0,0-53.54,10.71-139.2-18.73v-19.63s93.7,4.9,112.88,7.13Z" transform="translate(-1301.18 -602.76)"/><path class="cls-3" d="M2923.28,1177c1.19,30.34,8.33,89.23,72,120.76.17.08.34.17.51.24-17.22-57.49-38.54-131.6-48.59-178.35C2935.49,1137.15,2922.63,1160.33,2923.28,1177Z" transform="translate(-1301.18 -602.76)"/><path class="cls-9" d="M2919.51,1044.72s54.33,3.83,67.42,33,17.25,126.11.6,154.67c0,0-22.94,6.53-63.49-1.06l-1.5-.28s-12.94-31.68-1.34-37.93c0,0,34.2,1.79,30.63-9.51S2919.51,1044.72,2919.51,1044.72Z" transform="translate(-1301.18 -602.76)"/><path class="cls-14" d="M2783.28,1201.65l1.6,5.15,89.16-27.74a3.41,3.41,0,0,0,.6-3.15,2.51,2.51,0,0,0-2.2-2Z" transform="translate(-1301.18 -602.76)"/><polygon class="cls-14" points="1475.65 603.75 1482.1 598.89 1483.69 604.04 1475.65 603.75"/><path class="cls-6" d="M2762.68,1323.37s-22.62,12.5-25.59,22-.93,29.46,2.66,29.16,8.94-21.43,11.92-22.91,7.14-6,7.14-2.68-3,9.22-1.49,10.11,6.25-8.32,9.53-10.11,4.65-16.5,7.83-20.46S2762.68,1323.37,2762.68,1323.37Z" transform="translate(-1301.18 -602.76)"/><path class="cls-6" d="M2845.35,1189.53s-20.22-12.46-28.71-10.54-30.11,17.57-19.71,21,18.83-.16,22.83,2.3,6.95,7,25.59,6.91S2845.35,1189.53,2845.35,1189.53Z" transform="translate(-1301.18 -602.76)"/><rect class="cls-16" x="447.66" y="714.67" width="358.63" height="427.63"/><rect class="cls-17" x="1927.91" y="1542.36" width="87.06" height="108.17" transform="translate(3139.24 1576.21) rotate(154.28)"/><polygon class="cls-8" points="806.3 937.61 806.3 1062.52 790.76 1053.54 772.7 1043.12 758.15 1034.72 753.63 1032.11 744.33 1026.74 750.18 1016.6 782.82 960.07 798.42 933.06 806.3 937.61"/><rect class="cls-8" x="1949.69" y="1588.56" width="87.06" height="108.17" transform="translate(2966.15 -184.72) rotate(112.21)"/><rect class="cls-17" x="1849.92" y="1596.12" width="87.07" height="108.17" transform="translate(3093.24 1278.73) rotate(144.21)"/><polygon class="cls-8" points="806.3 996.4 806.3 1107.67 789.19 1121.29 741.63 1061.53 739.65 1059.05 735.27 1053.54 734.97 1053.17 749.88 1041.31 749.88 1041.3 758.15 1034.72 801.98 999.83 806.3 996.4"/><polygon class="cls-8" points="806.3 1008.79 806.3 1026.93 772.7 1043.12 751.08 1053.54 743.37 1057.25 739.65 1059.05 734.96 1061.31 731.22 1053.54 719.8 1029.85 704.41 997.91 688 963.85 701.15 957.52 766.44 926.07 782.82 960.07 801.98 999.83 806.3 1008.79"/><rect class="cls-8" x="525.33" y="1053.54" width="280.96" height="88.24"/><rect class="cls-18" x="1661.1" y="1317.43" width="348.49" height="427.63" transform="translate(2369.5 2459.73) rotate(180)"/><rect class="cls-9" x="1762.49" y="1542.36" width="87.06" height="108.17" transform="translate(2824.8 1648.01) rotate(154.28)"/><rect class="cls-9" x="1886" y="1558.2" width="87.06" height="108.17" transform="translate(1115.9 3476.27) rotate(-141.06)"/><rect class="cls-19" x="1784.28" y="1588.56" width="87.06" height="108.17" transform="translate(2738.22 -31.56) rotate(112.21)"/><rect class="cls-19" x="1684.5" y="1596.12" width="87.07" height="108.17" transform="translate(2793.65 1375.46) rotate(144.21)"/><rect class="cls-19" x="1896.63" y="1602.22" width="87.06" height="108.17" transform="translate(551.43 3603.04) rotate(-128.52)"/><rect class="cls-19" x="1842.93" y="1542.36" width="87.06" height="108.17" transform="translate(2977.71 1613.09) rotate(154.28)"/><rect class="cls-19" x="1661.1" y="1656.31" width="348.49" height="88.23" transform="translate(2369.5 2798.09) rotate(180)"/><polygon class="cls-9" points="708.41 954.02 688 963.85 708.4 1006.2 708.41 954.02"/><rect class="cls-11" x="359.91" y="714.67" width="348.49" height="74.22"/><rect class="cls-13" x="708.4" y="714.67" width="99.14" height="74.22"/><path class="cls-1" d="M1759,1338.43h7.83l8.43,22.7,8.42-22.7h7.64l-13,32.46h-6.26Z" transform="translate(-1301.18 -602.76)"/><path class="cls-1" d="M1792.82,1354.54c0-9.16,7.23-16.66,17.17-16.66s17.08,7.41,17.08,16.66-7.23,16.67-17.17,16.67S1792.82,1363.8,1792.82,1354.54Zm26.84,0a9.79,9.79,0,0,0-9.76-10.12c-5.71,0-9.67,4.51-9.67,10.12s4,10.13,9.76,10.13S1819.66,1360.16,1819.66,1354.54Z" transform="translate(-1301.18 -602.76)"/><path class="cls-1" d="M1839.5,1345h-9.8v-6.54h26.7V1345h-9.81v25.69h-7.09Z" transform="translate(-1301.18 -602.76)"/><path class="cls-1" d="M1861.84,1338.43h24.3v6.31h-17.26v6.54h15.19v6.3h-15.19v6.77h17.49v6.31h-24.53Z" transform="translate(-1301.18 -602.76)"/><rect class="cls-11" x="690.74" y="1141.78" width="17.68" height="37.02"/><rect class="cls-11" x="788.66" y="1141.78" width="17.68" height="37.02"/><rect class="cls-11" x="359.93" y="1141.78" width="17.68" height="37.02"/><rect class="cls-3" x="1789.82" y="1114.48" width="122.81" height="161.66" transform="translate(2493.19 1631.76) rotate(175.29)"/><rect class="cls-2" x="1795.49" y="1119.81" width="111.58" height="150.64" transform="translate(2493.29 1631.39) rotate(175.29)"/><rect class="cls-1" x="1804.44" y="1192.41" width="58.17" height="0.95" transform="translate(2457.66 1628.35) rotate(175.29)"/><rect class="cls-1" x="1804.81" y="1196.85" width="58.17" height="0.95" transform="translate(2458.76 1637.19) rotate(175.29)"/><rect class="cls-1" x="1805.18" y="1201.34" width="58.17" height="0.95" transform="translate(2459.85 1646.16) rotate(175.29)"/><rect class="cls-1" x="1804.6" y="1177.71" width="31.32" height="2.1" transform="matrix(-1, 0.08, -0.08, -1, 2429.98, 1601.28)"/><rect class="cls-1" x="1804.58" y="1182.88" width="38.14" height="2.1" transform="translate(2437.2 1611.32) rotate(175.29)"/><rect class="cls-1" x="1873.34" y="1171.26" width="26.76" height="26.76" transform="translate(2563.19 1607.54) rotate(175.29)"/><polygon class="cls-14" points="593.16 578.29 586.8 588.78 576.94 573.66 587.61 581.87 593.16 578.29"/><rect class="cls-1" x="1808.77" y="1245.35" width="58.17" height="0.95" transform="matrix(-1, 0.08, -0.08, -1, 2470.64, 1733.73)"/><rect class="cls-1" x="1809.13" y="1249.79" width="58.17" height="0.95" transform="translate(2471.73 1742.57) rotate(175.29)"/><rect class="cls-1" x="1809.5" y="1254.28" width="58.17" height="0.95" transform="translate(2472.84 1751.51) rotate(175.29)"/><rect class="cls-1" x="1808.92" y="1230.65" width="31.32" height="2.1" transform="translate(2443 1706.57) rotate(175.29)"/><rect class="cls-1" x="1808.91" y="1235.82" width="38.14" height="2.1" transform="translate(2450.19 1716.66) rotate(175.29)"/><rect class="cls-1" x="1877.67" y="1224.2" width="26.76" height="26.76" transform="translate(2576.19 1712.88) rotate(175.29)"/><polygon class="cls-14" points="597.49 631.23 591.13 641.72 581.27 626.6 591.94 634.81 597.49 631.23"/><rect class="cls-1" x="1799.06" y="1149.42" width="58.17" height="0.95" transform="translate(2443.36 1542.99) rotate(175.29)"/><rect class="cls-1" x="1799.42" y="1153.86" width="58.17" height="0.95" transform="translate(2444.45 1551.83) rotate(175.29)"/><rect class="cls-1" x="1799.79" y="1158.35" width="58.17" height="0.95" transform="translate(2445.58 1560.74) rotate(175.29)"/><rect class="cls-1" x="1799.21" y="1134.72" width="31.32" height="2.1" transform="translate(2415.7 1515.87) rotate(175.29)"/><rect class="cls-1" x="1799.2" y="1139.89" width="38.14" height="2.1" transform="translate(2422.92 1525.92) rotate(175.29)"/><rect class="cls-1" x="1867.96" y="1128.27" width="26.76" height="26.76" transform="translate(2548.91 1522.14) rotate(175.29)"/><polygon class="cls-14" points="587.78 535.3 581.41 545.79 571.55 530.67 582.22 538.88 587.78 535.3"/><path class="cls-6" d="M1773.69,1142.09c2.12-1.5,3.77-4.83,5.94-7.32a22.66,22.66,0,0,1,4.69-3.63s.32,4.33.65,7.83c6.43-2.4,16.09-4.61,31.53-1.65a11.55,11.55,0,0,1,7.59,5c1.58,2.45,2.16,5.51-1.77,8-7.88,4.9-5.6,2-16.54,9.1s-24.35,8.95-32.36,3.94l-10.75-1.79-1.33-17.67S1767.46,1143.13,1773.69,1142.09Z" transform="translate(-1301.18 -602.76)"/><path class="cls-6" d="M1492.08,993.83s25.33,30.06,57.6,17.48c0,0,6.94-16.78,7-29.16,0-1.52,0-3,0-4.4.17-13.93.64-21.75.64-21.75h0c-1.47-.61-49.32-20.26-49.28-18.63C1508.92,975.05,1492.08,993.83,1492.08,993.83Z" transform="translate(-1301.18 -602.76)"/><path class="cls-7" d="M1512.9,946.35c4.62,8.55,20.45,25.29,43.87,31.4.17-13.93.64-21.75.64-21.75h0C1556.05,955.64,1511.53,943.83,1512.9,946.35Z" transform="translate(-1301.18 -602.76)"/><path class="cls-6" d="M1567.43,954.55s-53.81,12.65-61.17-21S1487,878.91,1521,869.41s43.55,1.87,48.74,12.5S1581.24,950.39,1567.43,954.55Z" transform="translate(-1301.18 -602.76)"/><path class="cls-8" d="M1508.1,942.73c-.74.47-12.32,4-34.25-39.66-3.44-6.85-5.78-21.69,2.24-34.8s36.48-23.41,60.12-27.9,29.31,8.82,34.88,22.19c5.84,14,22.72,25.58,22.72,25.58-20.39,11.39-44.94-4.89-53.44-2.22s-11.52,16.09-12.15,20.38-1.62,7.87-12.32,4-4.83,15.16-3.12,18.79C1512.78,929.12,1514.23,938.8,1508.1,942.73Z" transform="translate(-1301.18 -602.76)"/><path class="cls-20" d="M1369.47,1781.5h-32.59c-6.83,0-14.42-6.84-16.32-19.36s-15.94-19.36-19-29.61,12.53-24.68,12.53-24.68l2.6-3.35,2.71-3.49,25.81,6.08s.64,6.14,1,14a178.39,178.39,0,0,1,.1,17.92c-.76,13.67,3.83,28.39,16,31S1369.47,1781.5,1369.47,1781.5Z" transform="translate(-1301.18 -602.76)"/><path class="cls-20" d="M1596.31,1781.5h-86.37a7.78,7.78,0,0,1-1.84-.53c-5.76-2.89-4-25-3.26-31.79.13-1.26.22-2,.22-2s30.38-24.3,34.56-5.69c.13.58.28,1.15.44,1.71h0c5.28,17.4,28.85,25.3,42.46,27.51C1592.92,1772.41,1595.62,1778.47,1596.31,1781.5Z" transform="translate(-1301.18 -602.76)"/><path class="cls-11" d="M1578.9,1283.4s-4.61,57.55-10,126.73c-7.37,94-16.23,209.4-17.11,231.27-1.51,38-7.59,98.71-7.59,98.71s-14.42,14.44-43.28,8.35c0,0-25.72-86.7-33.07-178.45-.11-1.5-.22-3-.34-4.53-6.83-93.39-17.46-290.06-17.46-290.06Z" transform="translate(-1301.18 -602.76)"/><path class="cls-13" d="M1578.9,1283.4s-4.61,57.55-10,126.73l-101,159.88c-.11-1.5-.22-3-.34-4.53-6.83-93.39-17.46-290.06-17.46-290.06Z" transform="translate(-1301.18 -602.76)"/><path class="cls-11" d="M1557.84,1290.23S1474.7,1498.66,1420,1596.61s-71.76,125.28-71.76,125.28-31.32-12.53-34.16-21.07c0,0,20.9-189.09,57.51-235.19,20.69-26.05,45-104.21,46.13-131.55s7.4-81.43,7.4-81.43Z" transform="translate(-1301.18 -602.76)"/><path class="cls-6" d="M1368.23,1252.36l-.88,13.41s8.84,23.81-15.93,36c0,0-10.6,4.27-11-4s.92-5.15.06-16.78,3.71-22.6,11.4-26.3l6.31-7.28Z" transform="translate(-1301.18 -602.76)"/><path class="cls-20" d="M1358.56,1262.12c9.2,3,10.67,2.29,10.67,2.29s44.79-81.55,49.33-89,95.1-91.44,95.1-91.44l-23.27-86.79s-103,133.39-114.13,152.53c-18.38,31.63-29.15,105.08-29.15,105.08A26.93,26.93,0,0,0,1358.56,1262.12Z" transform="translate(-1301.18 -602.76)"/><path class="cls-2" d="M1596.46,1118c-.33,17.82-1.36,37.86-2.76,58.21-.08,1.21-.17,2.41-.25,3.62-.9,12.61-4.73,56.57-4.93,58.35-4.54,46.15-9.3,82.61-10.18,83.17a5.14,5.14,0,0,1-3.54.91c-12.11-1.52-48.22,1.22-77.78-5.21-25-5.26-46.43-15.24-69.19-28.69-3-1.78-9.91-6.52-9.35-10.05.55-3.89,1.57-9.5,2.86-16.56,4.48-24.55,12.23-66.78,14.87-116.2q.76-13.8,2.23-27.24a414,414,0,0,1,12-65c10.14-36.5,25-64.45,43.73-75.39,2.44-1.37,15.58,7,27.64,14.74a53.29,53.29,0,0,0,34.29,8.12l10,11.11c12.16,14.13,25.11,32.95,28.64,59.71q.4,3,.69,6.3A393.67,393.67,0,0,1,1596.46,1118Z" transform="translate(-1301.18 -602.76)"/><path class="cls-20" d="M1596.46,1118c-.33,17.82-1.36,37.86-2.76,58.21-.08,1.21-.17,2.41-.25,3.62-69.14-43.27-79.79-122.46-79.79-122.46,34,1.49,61,9.31,81.86,20.49A393.67,393.67,0,0,1,1596.46,1118Z" transform="translate(-1301.18 -602.76)"/><path class="cls-2" d="M1771.13,1152.11c.72-10.25-4.59-12-4.59-12s-104.24-18.89-113.1-21.68-84.63-81.61-84.63-81.61-29-32.75-52.82-25.52c-20.67,6.29-28.75,22.41-31.5,37.76a45.25,45.25,0,0,0,21,46.44c35.57,21.81,106.79,64.8,123.56,69.72,37.33,10.94,137.62.88,137.62.88A32.43,32.43,0,0,0,1771.13,1152.11Z" transform="translate(-1301.18 -602.76)"/><path class="cls-5" d="M1789.93,1010.33h-92.56V917.77h92.56Zm-88.72-3.84h84.87V921.62h-84.87Z" transform="translate(-1301.18 -602.76)"/><polygon class="cls-21" points="411.69 350.3 441.8 391.8 477.66 325.47 436.05 363.3 411.69 350.3"/><path class="cls-5" d="M1926.51,898.43H1834V805.87h92.56Zm-88.71-3.84h84.87V809.72H1837.8Z" transform="translate(-1301.18 -602.76)"/><polygon class="cls-21" points="548.28 238.4 578.38 279.9 614.25 213.57 572.63 251.4 548.28 238.4"/><path class="cls-6" d="M3350.91,1196s-2.12-21.11,8.92-20.38,14,5.78,12.73,9.84-12,17.48-12,17.48Z" transform="translate(-1301.18 -602.76)"/><path class="cls-13" d="M3333.67,1308.23c-19.27.77-57.87-10.54-72.43-16.52a291.06,291.06,0,0,1-36-17.72q-4.11-2.38-7.84-4.75c-26.28-16.57-38.51-30.93-38.51-30.93s49.25-42.58,69.12-31.44c23.31,13.09,63.49,55.37,70.28,51,7.64-4.89,29-64.81,29-64.81,14-2.67,17.08,8,17.08,8S3361,1307.13,3333.67,1308.23Z" transform="translate(-1301.18 -602.76)"/><path class="cls-20" d="M3252.32,1755.65s-2,23.36,2.92,25.79l63.18-.13s0-7.29-10.15-8.91-28-7.57-31-20.8S3252.32,1755.65,3252.32,1755.65Z" transform="translate(-1301.18 -602.76)"/><path class="cls-2" d="M3298.7,1473c-.31,15.27-1,31-2.48,45.18-6.82,67.17-9.22,148.34-10.2,164-1.7,27.17-7.07,70.56-7.07,70.56s-10.64,10.11-31.39,5.29c0,0-17.19-62.51-21-128.32-.06-1.08-.11-2.16-.17-3.25-.45-8.7-.91-18.65-1.39-29.38-3.16-71.85-6.59-178.6-6.59-178.6l79.28-18.61S3299.48,1434.93,3298.7,1473Z" transform="translate(-1301.18 -602.76)"/><path class="cls-20" d="M3298.7,1473c-20.09,34.67-58.39,98.53-73.73,124.06-3.16-71.85-6.59-178.6-6.59-178.6l79.28-18.61S3299.48,1434.93,3298.7,1473Z" transform="translate(-1301.18 -602.76)"/><path class="cls-6" d="M3133.34,1461.71s-4.92,19.3-4.11,23.58,5.61,18.81,8.6,22.42,3.12-15.66,5.11-18.69.92,7.19,2.51,8,4.26-7.74,5.45-10.78-4.26-13.63-4.76-21.22S3133.34,1461.71,3133.34,1461.71Z" transform="translate(-1301.18 -602.76)"/><path class="cls-20" d="M3094.94,1729.11s-11.25,10.26-9.05,17.55,12.34,12.16,13.71,21.07,6.86,13.77,11.79,13.77h23.54s3.63-6.27-5.14-8.16-12.09-12.36-11.54-22.08-.82-22.69-.82-22.69l-18.65-4.32Z" transform="translate(-1301.18 -602.76)"/><path class="cls-2" d="M3285.16,1420.09s-74.21,158.79-113.7,228.46-51.84,89.12-51.84,89.12-22.62-8.92-24.68-15c0,0,15.1-134.51,41.55-167.3,14.94-18.52,32.5-74.13,33.32-93.57S3188,1396,3188,1396Z" transform="translate(-1301.18 -602.76)"/><path class="cls-11" d="M3299,1411.82s-24.16,26-65.23,33.87c-18,3.45-54.6,6.78-63.67-6-2.13-3-2.15-7.47-1.68-14.44,1.22-18.1,5.77-53.09-14.78-123.41a120.43,120.43,0,0,1-4-18.8c-4.49-36,10.68-61.5,28.5-72.89,43.44-27.79,64.67-8.6,64.67-8.6s24.88,11.62,36.24,45.5C3301.82,1314.75,3299,1411.82,3299,1411.82Z" transform="translate(-1301.18 -602.76)"/><path class="cls-6" d="M3191.11,1202.83s24.87,8.06,47.56-1.27c0,0,4.38-2.29.79-7.21a74.45,74.45,0,0,0,.37-7.8,114.46,114.46,0,0,0-.13-12.55L3223,1163.11l-15.86-10.43C3211.25,1185.63,3191.11,1202.83,3191.11,1202.83Z" transform="translate(-1301.18 -602.76)"/><path class="cls-7" d="M3208,1165.34s11.89,17.73,31.84,21.21c.27-8-.26-16.26-.26-16.26l-16.58-7.18Z" transform="translate(-1301.18 -602.76)"/><path class="cls-6" d="M3254.55,1169.76s-40.26,15-49.22-9.78-20.18-39.57,5.14-50.21,33.77-3,38.8,4.59S3264.79,1165.21,3254.55,1169.76Z" transform="translate(-1301.18 -602.76)"/><path class="cls-12" d="M3180.25,1112.56c-.46-.36-1.4-.54-3.36-.26a8,8,0,0,1,3.42-1.74c-.13-2.77.36-7.83,4.77-9.9a5.92,5.92,0,0,0-2,4.75c4.29-6.58,15-12.88,47.39-16.66,42.68-5,34.14,24.66,29.34,28.94s-20.24-1.81-30.22,1-9,17.84-12,20.52-2.39-1.13-7.46-2.31-4,6.61-1.65,11.36-2.76,12.62-2.76,12.62l-7.83-5.68c-7.83-5.68-19.74-34-18-40.81Z" transform="translate(-1301.18 -602.76)"/><path class="cls-13" d="M3168.41,1425.2c1.22-18.1,5.77-53.09-14.78-123.41a120.43,120.43,0,0,1-4-18.8h0c15.27-5,43.1,6.17,43.1,6.17S3199.32,1382.11,3168.41,1425.2Z" transform="translate(-1301.18 -602.76)"/><path class="cls-11" d="M3180,1209s-31.52,17.86-42.31,57.69c-8.84,32.64-22.5,81.19-24.14,96.38s16.67,104.08,16.67,104.08,2.58,1.88,8.91.61a14.72,14.72,0,0,0,8.87-5.3s4.38-59.25,3.25-87.23c-.47-11.62,53.81-85.12,83.1-94.59C3245.85,1276.87,3180,1209,3180,1209Z" transform="translate(-1301.18 -602.76)"/><path class="cls-13" d="M3201.84,1187.8s-5.27,2.57-15.48,16.15c0,0,19,23.84,46.45,20.73,0,0-3.38-12.35-3.21-20.2C3229.6,1204.48,3206.67,1201.92,3201.84,1187.8Z" transform="translate(-1301.18 -602.76)"/><path class="cls-13" d="M3229.6,1204.48s14.66,3.82,18.18,14.36c0,0,3.1-9.06.37-14.18s-8.69-10.31-8.69-10.31S3241.47,1200.82,3229.6,1204.48Z" transform="translate(-1301.18 -602.76)"/><path class="cls-22" d="M3431.32,1145.65a625.71,625.71,0,0,0-117,10l-6.54-16.5-7.18-18.08s62.92-27.08,100.74-64.81Z" transform="translate(-1301.18 -602.76)"/><path class="cls-8" d="M3400.48,1055.38l31.19,92h0a8.3,8.3,0,0,0,5.46-10.73l-27.45-77.35a6.84,6.84,0,0,0-9.2-4Z" transform="translate(-1301.18 -602.76)"/><path class="cls-2" d="M3431.32,1145.65a625.71,625.71,0,0,0-117,10l-6.54-16.5C3366.67,1127.12,3431.32,1145.65,3431.32,1145.65Z" transform="translate(-1301.18 -602.76)"/><path class="cls-23" d="M3331.65,1152.33l-17,3c.26,0-15.76,3.12-21-11.08a11.29,11.29,0,0,1-1-3.07c-4.08-17.7,5.64-21,5.64-21l21.84-8.51,6.94,24.56v.08Z" transform="translate(-1301.18 -602.76)"/><path class="cls-8" d="M3331.65,1152.33l-17,3c.26,0-15.76,3.12-21-11.08,9.61-7,33.42-8,33.42-8v.08Z" transform="translate(-1301.18 -602.76)"/><path class="cls-2" d="M3370.72,1214.16h0a11.26,11.26,0,0,1-13.23-8.82l-10.74-53.72a11.28,11.28,0,0,1,8.82-13.23h0a11.28,11.28,0,0,1,13.23,8.82l10.74,53.73A11.27,11.27,0,0,1,3370.72,1214.16Z" transform="translate(-1301.18 -602.76)"/><path class="cls-6" d="M3369.27,1162.14s-8.31,3.31-6.78,7,12.08,8.68,13.74,5.79S3374.49,1159.06,3369.27,1162.14Z" transform="translate(-1301.18 -602.76)"/><path class="cls-6" d="M3350.75,1192.68a118,118,0,0,1-1.66-12.4c-.1-3.9-1.23-6.85-.31-7s1.43.57,1.8,1.83,2.64,8.83,2.64,8.83l-.72,7.51Z" transform="translate(-1301.18 -602.76)"/></svg>